<svg width="24" height="25" viewBox="0 0 24 25" fill="none" xmlns="http://www.w3.org/2000/svg">
<path fill-rule="evenodd" clip-rule="evenodd" d="M18.35 2.5C19.131 2.5 19.907 2.97 20.175 3.805L20.251 4.051L20.33 4.331L20.41 4.647L20.487 4.993L20.56 5.369L20.594 5.567L20.655 5.984C20.885 7.774 20.812 10.214 19.533 12.689L19.374 12.986C18.032 15.401 18.129 17.832 18.432 19.411L18.506 19.76L18.544 19.922L18.621 20.222L18.698 20.484C18.972 21.374 18.38 22.406 17.371 22.494L17.231 22.5H5.65002C4.87002 22.5 4.09302 22.03 3.82502 21.195L3.75002 20.949L3.67002 20.669L3.59002 20.353L3.51302 20.007L3.44002 19.631C3.41602 19.501 3.39402 19.3667 3.37402 19.228L3.31902 18.798L3.27702 18.344C3.15002 16.64 3.34202 14.489 4.46702 12.311L4.62602 12.014C5.96802 9.6 5.87002 7.168 5.56802 5.59L5.49502 5.241L5.45602 5.079L5.37902 4.779L5.30202 4.517C5.02802 3.627 5.62002 2.595 6.62902 2.507L6.77002 2.5H18.35ZM12 12.5H9.00002C8.7348 12.5 8.48045 12.6054 8.29291 12.7929C8.10537 12.9804 8.00002 13.2348 8.00002 13.5C8.00002 13.7652 8.10537 14.0196 8.29291 14.2071C8.48045 14.3946 8.7348 14.5 9.00002 14.5H12C12.2652 14.5 12.5196 14.3946 12.7071 14.2071C12.8947 14.0196 13 13.7652 13 13.5C13 13.2348 12.8947 12.9804 12.7071 12.7929C12.5196 12.6054 12.2652 12.5 12 12.5ZM16 8.5H10C9.74514 8.50028 9.49998 8.59788 9.31465 8.77285C9.12931 8.94782 9.01778 9.18695 9.00284 9.44139C8.98791 9.69584 9.07069 9.94638 9.23428 10.1418C9.39787 10.3373 9.62992 10.4629 9.88302 10.493L10 10.5H16C16.2549 10.4997 16.5 10.4021 16.6854 10.2272C16.8707 10.0522 16.9823 9.81305 16.9972 9.55861C17.0121 9.30416 16.9293 9.05362 16.7658 8.85817C16.6022 8.66271 16.3701 8.5371 16.117 8.507L16 8.5Z" fill="#A1A1AA"/>
</svg>
