<svg width="24" height="25" viewBox="0 0 24 25" fill="none" xmlns="http://www.w3.org/2000/svg">
<path fill-rule="evenodd" clip-rule="evenodd" d="M18.3498 2.5C19.1308 2.5 19.9068 2.97 20.1748 3.805L20.2508 4.051L20.3298 4.331L20.4098 4.647L20.4868 4.993L20.5598 5.369L20.5938 5.567L20.6548 5.984C20.8848 7.774 20.8118 10.214 19.5328 12.689L19.3738 12.986C18.0318 15.401 18.1288 17.832 18.4318 19.411L18.5058 19.76L18.5438 19.922L18.6208 20.222L18.6978 20.484C18.9718 21.374 18.3798 22.406 17.3708 22.494L17.2308 22.5H5.64977C4.86977 22.5 4.09277 22.03 3.82477 21.195L3.74977 20.949L3.66977 20.669L3.58977 20.353L3.51277 20.007L3.43977 19.631C3.41577 19.501 3.39377 19.3667 3.37377 19.228L3.31877 18.798L3.27677 18.344C3.14977 16.64 3.34177 14.489 4.46677 12.311L4.62577 12.014C5.96777 9.6 5.86977 7.168 5.56777 5.59L5.49477 5.241L5.45577 5.079L5.37877 4.779L5.30177 4.517C5.02777 3.627 5.61977 2.595 6.62877 2.507L6.76977 2.5H18.3498ZM11.9998 12.5H8.99977C8.73456 12.5 8.4802 12.6054 8.29267 12.7929C8.10513 12.9804 7.99977 13.2348 7.99977 13.5C7.99977 13.7652 8.10513 14.0196 8.29267 14.2071C8.4802 14.3946 8.73456 14.5 8.99977 14.5H11.9998C12.265 14.5 12.5193 14.3946 12.7069 14.2071C12.8944 14.0196 12.9998 13.7652 12.9998 13.5C12.9998 13.2348 12.8944 12.9804 12.7069 12.7929C12.5193 12.6054 12.265 12.5 11.9998 12.5ZM15.9998 8.5H9.99977C9.74489 8.50028 9.49974 8.59788 9.3144 8.77285C9.12907 8.94782 9.01754 9.18695 9.0026 9.44139C8.98766 9.69584 9.07045 9.94638 9.23404 10.1418C9.39763 10.3373 9.62968 10.4629 9.88277 10.493L9.99977 10.5H15.9998C16.2547 10.4997 16.4998 10.4021 16.6851 10.2272C16.8705 10.0522 16.982 9.81305 16.9969 9.55861C17.0119 9.30416 16.9291 9.05362 16.7655 8.85817C16.6019 8.66271 16.3699 8.5371 16.1168 8.507L15.9998 8.5Z" fill="#2A2A2E"/>
</svg>
