<svg width="11" height="14" viewBox="0 0 11 14" fill="none" xmlns="http://www.w3.org/2000/svg">
<path d="M2.19141 11.2422L1.26562 7.52734H0V6.46094H1.00781L0.0820312 2.75781H1.52344L2.35547 6.46094H3.66797L4.55859 2.75781H5.95312L6.84375 6.46094H8.17969L9 2.75781H10.4297L9.51562 6.46094H10.5117V7.52734H9.24609L8.32031 11.2422H6.82031L5.90625 7.52734H4.60547L3.69141 11.2422H2.19141ZM2.58984 7.52734L2.94141 9.13281H3.02344L3.41016 7.52734H2.58984ZM4.86328 6.46094H5.64844L5.28516 4.98438H5.22656L4.86328 6.46094ZM7.10156 7.52734L7.48828 9.14453H7.57031L7.93359 7.52734H7.10156Z"/>
</svg>
