<svg width="56" height="56" viewBox="0 0 56 56" fill="none" xmlns="http://www.w3.org/2000/svg">
<g clip-path="url(#clip0_515_8440)">
<g filter="url(#filter0_d_515_8440)">
<path d="M42.8493 10.8173C46.7048 14.6723 48.9098 19.8756 48.9982 25.3269C49.0866 30.7783 47.0514 36.0504 43.323 40.0283L42.8493 40.5183L32.949 50.4163C31.6928 51.6717 30.0064 52.4027 28.2314 52.4612C26.4564 52.5197 24.7255 51.9013 23.3893 50.7313L23.0533 50.4163L13.1507 40.516C9.21239 36.5777 6.99988 31.2362 6.99988 25.6666C6.99988 20.0971 9.21239 14.7556 13.1507 10.8173C17.089 6.87901 22.4304 4.6665 28 4.6665C33.5696 4.6665 38.9111 6.87901 42.8493 10.8173ZM28 18.6666C27.0808 18.6666 26.1705 18.8477 25.3212 19.1995C24.4719 19.5513 23.7003 20.0669 23.0503 20.7169C22.4002 21.3669 21.8846 22.1386 21.5328 22.9878C21.1811 23.8371 21 24.7474 21 25.6666C21 26.5859 21.1811 27.4961 21.5328 28.3454C21.8846 29.1947 22.4002 29.9664 23.0503 30.6164C23.7003 31.2664 24.4719 31.782 25.3212 32.1338C26.1705 32.4856 27.0808 32.6666 28 32.6666C29.8565 32.6666 31.637 31.9291 32.9498 30.6164C34.2625 29.3036 35 27.5231 35 25.6666C35 23.8101 34.2625 22.0296 32.9498 20.7169C31.637 19.4041 29.8565 18.6666 28 18.6666Z" fill="white"/>
</g>
<rect x="12" y="11" width="32.4111" height="32.4111" rx="16.2056" fill="white"/>
<circle cx="35.8098" cy="26.9753" r="5.5959" fill="#FFB5BB"/>
<path d="M21.9857 18.6382L22.0931 19.1567L23.4075 25.5054H24.4827L25.9407 19.1431L26.056 18.6382H29.9134L30.0286 19.1431L31.4876 25.5054H32.5823L33.8763 19.1587L33.9818 18.6382H38.3519L38.1634 19.438L36.7337 25.5054H38.4651V28.9048H35.9241L34.4241 35.271L34.306 35.772H30.0784L29.9642 35.2651L28.5257 28.9048H27.4632L26.0052 35.2671L25.889 35.772H21.6644L21.5462 35.271L20.0452 28.9048H17.5042V25.5054H19.2357L17.806 19.438L17.6175 18.6382H21.9857Z" stroke="black" stroke-width="1.3"/>
</g>
<defs>
<filter id="filter0_d_515_8440" x="-3.00012" y="-1.43441" width="62.0011" height="67.7983" filterUnits="userSpaceOnUse" color-interpolation-filters="sRGB">
<feFlood flood-opacity="0" result="BackgroundImageFix"/>
<feColorMatrix in="SourceAlpha" type="matrix" values="0 0 0 0 0 0 0 0 0 0 0 0 0 0 0 0 0 0 127 0" result="hardAlpha"/>
<feOffset dy="3.89908"/>
<feGaussianBlur stdDeviation="5"/>
<feComposite in2="hardAlpha" operator="out"/>
<feColorMatrix type="matrix" values="0 0 0 0 0 0 0 0 0 0 0 0 0 0 0 0 0 0 0.25 0"/>
<feBlend mode="normal" in2="BackgroundImageFix" result="effect1_dropShadow_515_8440"/>
<feBlend mode="normal" in="SourceGraphic" in2="effect1_dropShadow_515_8440" result="shape"/>
</filter>
<clipPath id="clip0_515_8440">
<rect width="56" height="56" fill="white"/>
</clipPath>
</defs>
</svg>
