<svg width="57" height="65" viewBox="0 0 57 65" fill="none" xmlns="http://www.w3.org/2000/svg">
<path d="M28.12 0.919434C35.5459 0.919483 42.6679 3.8697 47.9188 9.12061C53.0591 14.2604 55.9992 21.1981 56.1171 28.4663C56.2349 35.7346 53.5208 42.7641 48.5497 48.0679L47.9188 48.7212L34.7186 61.9185C33.0438 63.5922 30.7951 64.566 28.4286 64.644C26.0621 64.722 23.754 63.8982 21.9725 62.3384L21.5243 61.9185L8.32117 48.7183C3.07031 43.4674 0.120094 36.3453 0.119995 28.9194C0.119995 21.4935 3.07028 14.3715 8.32117 9.12061C13.5721 3.86966 20.694 0.919434 28.12 0.919434Z" fill="#FC696A"/>
</svg>
