<svg width="84" height="85" viewBox="0 0 84 85" fill="none" xmlns="http://www.w3.org/2000/svg">
<g filter="url(#filter0_d_388_336)">
<path d="M42 8.91943C49.4259 8.91948 56.5479 11.8697 61.7988 17.1206C66.9391 22.2604 69.8792 29.1981 69.9971 36.4663C70.1149 43.7346 67.4008 50.7641 62.4297 56.0679L61.7988 56.7212L48.5986 69.9185C46.9238 71.5922 44.6751 72.566 42.3086 72.644C39.9421 72.722 37.634 71.8982 35.8525 70.3384L35.4043 69.9185L22.2012 56.7183C16.9503 51.4674 14.0001 44.3453 14 36.9194C14 29.4935 16.9503 22.3715 22.2012 17.1206C27.4521 11.8697 34.574 8.91943 42 8.91943Z" fill="url(#paint0_linear_388_336)"/>
<path d="M34.299 48.6178L32.2161 39.7798H29.12V37.0777H31.5687L29.4859 28.2397H33.3701L35.1996 37.0777H37.9299L39.9564 28.2397H43.5873L45.6138 37.0777H48.3722L50.1736 28.2397H54.0578L51.975 37.0777H54.4237V39.7798H51.3276L49.2447 48.6178H45.1354L43.137 39.7798H40.4349L38.4083 48.6178H34.299ZM35.7626 39.7798L36.4099 42.9604H36.5788L37.3106 39.7798H35.7626ZM41.0541 37.0777H42.5177L41.8422 34.1505H41.7015L41.0541 37.0777ZM46.2331 39.7798L46.9649 42.9885H47.1338L47.8093 39.7798H46.2331Z" fill="#F4F4F5"/>
</g>
<defs>
<filter id="filter0_d_388_336" x="0" y="0.378149" width="84.001" height="91.7295" filterUnits="userSpaceOnUse" color-interpolation-filters="sRGB">
<feFlood flood-opacity="0" result="BackgroundImageFix"/>
<feColorMatrix in="SourceAlpha" type="matrix" values="0 0 0 0 0 0 0 0 0 0 0 0 0 0 0 0 0 0 127 0" result="hardAlpha"/>
<feOffset dy="5.45872"/>
<feGaussianBlur stdDeviation="7"/>
<feComposite in2="hardAlpha" operator="out"/>
<feColorMatrix type="matrix" values="0 0 0 0 0 0 0 0 0 0 0 0 0 0 0 0 0 0 0.25 0"/>
<feBlend mode="normal" in2="BackgroundImageFix" result="effect1_dropShadow_388_336"/>
<feBlend mode="normal" in="SourceGraphic" in2="effect1_dropShadow_388_336" result="shape"/>
</filter>
<linearGradient id="paint0_linear_388_336" x1="42.0005" y1="8.91943" x2="42.0005" y2="72.6491" gradientUnits="userSpaceOnUse">
<stop stop-color="#3E7CFF"/>
<stop offset="1" stop-color="#FC696A"/>
</linearGradient>
</defs>
</svg>
