<svg width="85" height="85" viewBox="0 0 85 85" fill="none" xmlns="http://www.w3.org/2000/svg">
<g filter="url(#filter0_d_388_336)">
<path d="M42.12 8.91943C49.5459 8.91948 56.6679 11.8697 61.9188 17.1206C67.0591 22.2604 69.9992 29.1981 70.1171 36.4663C70.2349 43.7346 67.5208 50.7641 62.5497 56.0679L61.9188 56.7212L48.7186 69.9185C47.0438 71.5922 44.7951 72.566 42.4286 72.644C40.0621 72.722 37.754 71.8982 35.9725 70.3384L35.5243 69.9185L22.3212 56.7183C17.0703 51.4674 14.1201 44.3453 14.12 36.9194C14.12 29.4935 17.0703 22.3715 22.3212 17.1206C27.5721 11.8697 34.694 8.91943 42.12 8.91943Z" fill="#FC696A"/>
<path d="M34.4189 48.6178L32.3361 39.7798H29.24V37.0777H31.6887L29.6059 28.2397H33.4901L35.3196 37.0777H38.0498L40.0764 28.2397H43.7073L45.7338 37.0777H48.4922L50.2936 28.2397H54.1778L52.0949 37.0777H54.5437V39.7798H51.4476L49.3647 48.6178H45.2554L43.2569 39.7798H40.5549L38.5283 48.6178H34.4189ZM35.8826 39.7798L36.5299 42.9604H36.6988L37.4306 39.7798H35.8826ZM41.1741 37.0777H42.6377L41.9622 34.1505H41.8215L41.1741 37.0777ZM46.3531 39.7798L47.0849 42.9885H47.2538L47.9293 39.7798H46.3531Z" fill="#F4F4F5"/>
</g>
<defs>
<filter id="filter0_d_388_336" x="0.119995" y="0.378149" width="84.001" height="91.7295" filterUnits="userSpaceOnUse" color-interpolation-filters="sRGB">
<feFlood flood-opacity="0" result="BackgroundImageFix"/>
<feColorMatrix in="SourceAlpha" type="matrix" values="0 0 0 0 0 0 0 0 0 0 0 0 0 0 0 0 0 0 127 0" result="hardAlpha"/>
<feOffset dy="5.45872"/>
<feGaussianBlur stdDeviation="7"/>
<feComposite in2="hardAlpha" operator="out"/>
<feColorMatrix type="matrix" values="0 0 0 0 0 0 0 0 0 0 0 0 0 0 0 0 0 0 0.25 0"/>
<feBlend mode="normal" in2="BackgroundImageFix" result="effect1_dropShadow_388_336"/>
<feBlend mode="normal" in="SourceGraphic" in2="effect1_dropShadow_388_336" result="shape"/>
</filter>
</defs>
</svg>
