<svg width="56" height="56" viewBox="0 0 56 56" fill="none" xmlns="http://www.w3.org/2000/svg">
<g clip-path="url(#clip0_388_313)">
<g filter="url(#filter0_d_388_313)">
<path d="M42.8493 10.8173C46.7048 14.6723 48.9098 19.8756 48.9982 25.3269C49.0866 30.7783 47.0514 36.0504 43.323 40.0283L42.8493 40.5183L32.949 50.4163C31.6928 51.6717 30.0064 52.4027 28.2314 52.4612C26.4564 52.5197 24.7255 51.9013 23.3893 50.7313L23.0533 50.4163L13.1507 40.516C9.21239 36.5777 6.99988 31.2362 6.99988 25.6666C6.99988 20.0971 9.21239 14.7556 13.1507 10.8173C17.089 6.87901 22.4304 4.6665 28 4.6665C33.5696 4.6665 38.9111 6.87901 42.8493 10.8173ZM28 18.6666C27.0808 18.6666 26.1705 18.8477 25.3212 19.1995C24.4719 19.5513 23.7003 20.0669 23.0503 20.7169C22.4002 21.3669 21.8846 22.1386 21.5328 22.9878C21.1811 23.8371 21 24.7474 21 25.6666C21 26.5859 21.1811 27.4961 21.5328 28.3454C21.8846 29.1947 22.4002 29.9664 23.0503 30.6164C23.7003 31.2664 24.4719 31.782 25.3212 32.1338C26.1705 32.4856 27.0808 32.6666 28 32.6666C29.8565 32.6666 31.637 31.9291 32.9498 30.6164C34.2625 29.3036 35 27.5231 35 25.6666C35 23.8101 34.2625 22.0296 32.9498 20.7169C31.637 19.4041 29.8565 18.6666 28 18.6666Z" fill="white"/>
</g>
<rect x="11.6973" y="9.74756" width="32.4111" height="32.4111" rx="16.2056" fill="#4278EA"/>
<path d="M23.859 31.4665L22.732 26.6841H21.0566V25.2219H22.3817L21.2546 20.4395H23.3564L24.3464 25.2219H25.8238L26.9204 20.4395H28.8852L29.9818 25.2219H31.4744L32.4492 20.4395H34.5511L33.424 25.2219H34.7491V26.6841H33.0737L31.9466 31.4665H29.7229L28.6415 26.6841H27.1794L26.0827 31.4665H23.859ZM24.651 26.6841L25.0014 28.4052H25.0927L25.4887 26.6841H24.651ZM27.5144 25.2219H28.3064L27.9409 23.6379H27.8647L27.5144 25.2219ZM30.3169 26.6841L30.7129 28.4204H30.8043L31.1698 26.6841H30.3169Z" fill="#F4F4F5"/>
</g>
<defs>
<filter id="filter0_d_388_313" x="-3.00012" y="-1.43441" width="62.0011" height="67.7983" filterUnits="userSpaceOnUse" color-interpolation-filters="sRGB">
<feFlood flood-opacity="0" result="BackgroundImageFix"/>
<feColorMatrix in="SourceAlpha" type="matrix" values="0 0 0 0 0 0 0 0 0 0 0 0 0 0 0 0 0 0 127 0" result="hardAlpha"/>
<feOffset dy="3.89908"/>
<feGaussianBlur stdDeviation="5"/>
<feComposite in2="hardAlpha" operator="out"/>
<feColorMatrix type="matrix" values="0 0 0 0 0 0 0 0 0 0 0 0 0 0 0 0 0 0 0.25 0"/>
<feBlend mode="normal" in2="BackgroundImageFix" result="effect1_dropShadow_388_313"/>
<feBlend mode="normal" in="SourceGraphic" in2="effect1_dropShadow_388_313" result="shape"/>
</filter>
<clipPath id="clip0_388_313">
<rect width="56" height="56" fill="white"/>
</clipPath>
</defs>
</svg>
