<svg width="16" height="16" viewBox="0 0 16 16" fill="none" xmlns="http://www.w3.org/2000/svg">
<path d="M5.745 2.37504C5.92688 2.37502 6.10658 2.41469 6.27155 2.49128C6.43652 2.56788 6.58279 2.67955 6.70015 2.81851C6.81751 2.95747 6.90312 3.12037 6.95103 3.29583C6.99893 3.47129 7.00796 3.6551 6.9775 3.83441L8.21062 4.04066C8.25818 3.75903 8.25712 3.47132 8.2075 3.19004C8.44401 3.04193 8.72329 2.97722 9.00085 3.00622C9.2784 3.03523 9.53827 3.15628 9.73906 3.35009C9.93984 3.5439 10.07 3.79933 10.1088 4.07569C10.1476 4.35204 10.0928 4.63344 9.95312 4.87504H3.245C3.14799 4.87493 3.05234 4.85225 2.96561 4.80878C2.87889 4.76531 2.80347 4.70224 2.74534 4.62458C2.6872 4.54692 2.64794 4.4568 2.63067 4.36134C2.61339 4.26588 2.61857 4.16771 2.64581 4.0746C2.67304 3.98149 2.72157 3.896 2.78756 3.82489C2.85354 3.75379 2.93518 3.69902 3.026 3.66492C3.11682 3.63082 3.21433 3.61833 3.31081 3.62844C3.40729 3.63855 3.50009 3.67098 3.58187 3.72316C3.66606 3.77709 3.76195 3.81002 3.8615 3.81922C3.96105 3.82841 4.06135 3.81359 4.15399 3.77599C4.24663 3.7384 4.32889 3.67913 4.39388 3.60317C4.45888 3.5272 4.5047 3.43675 4.5275 3.33941C4.59193 3.06491 4.74727 2.82026 4.96829 2.64519C5.18932 2.47011 5.46304 2.37491 5.745 2.37504ZM6.6925 1.31066C6.12768 1.07925 5.4977 1.06247 4.92136 1.26348C4.34502 1.4645 3.86213 1.86943 3.56375 2.40191C3.1625 2.33258 2.74959 2.39575 2.38743 2.58187C2.02526 2.768 1.73353 3.06696 1.55633 3.43358C1.37913 3.80019 1.32609 4.21453 1.40523 4.61395C1.48437 5.01338 1.69139 5.37619 1.995 5.64754V13C1.995 13.3316 2.12669 13.6495 2.36111 13.8839C2.59553 14.1183 2.91348 14.25 3.245 14.25H9.495C9.82652 14.25 10.1445 14.1183 10.3789 13.8839C10.6133 13.6495 10.745 13.3316 10.745 13H11.995C12.3265 13 12.6445 12.8683 12.8789 12.6339C13.1133 12.3995 13.245 12.0816 13.245 11.75V7.37504C13.245 7.04352 13.1133 6.72558 12.8789 6.49116C12.6445 6.25674 12.3265 6.12504 11.995 6.12504H10.745V5.90379C11.1335 5.46388 11.3549 4.9013 11.3703 4.31458C11.3858 3.72786 11.1943 3.15442 10.8294 2.69469C10.4646 2.23496 9.94959 1.91825 9.37469 1.80005C8.7998 1.68185 8.20164 1.76968 7.685 2.04816C7.42114 1.7231 7.07987 1.46951 6.6925 1.31066ZM10.745 11.75V7.37504H11.995V11.75H10.745ZM4.495 7.37504H5.745V11.75H4.495V7.37504ZM6.995 7.37504H8.245V11.75H6.995V7.37504Z" />
</svg>
