<svg width="56" height="56" viewBox="0 0 56 56" fill="none" xmlns="http://www.w3.org/2000/svg">
<g clip-path="url(#clip0_515_8607)">
<g filter="url(#filter0_d_515_8607)">
<path d="M42.8493 10.8173C46.7048 14.6723 48.9098 19.8756 48.9982 25.3269C49.0866 30.7783 47.0514 36.0504 43.323 40.0283L42.8493 40.5183L32.949 50.4163C31.6928 51.6717 30.0064 52.4027 28.2314 52.4612C26.4564 52.5197 24.7255 51.9013 23.3893 50.7313L23.0533 50.4163L13.1507 40.516C9.21239 36.5777 6.99988 31.2362 6.99988 25.6666C6.99988 20.0971 9.21239 14.7556 13.1507 10.8173C17.089 6.87901 22.4304 4.6665 28 4.6665C33.5696 4.6665 38.9111 6.87901 42.8493 10.8173ZM28 18.6666C27.0808 18.6666 26.1705 18.8477 25.3212 19.1995C24.4719 19.5513 23.7003 20.0669 23.0503 20.7169C22.4002 21.3669 21.8846 22.1386 21.5328 22.9878C21.1811 23.8371 21 24.7474 21 25.6666C21 26.5859 21.1811 27.4961 21.5328 28.3454C21.8846 29.1947 22.4002 29.9664 23.0503 30.6164C23.7003 31.2664 24.4719 31.782 25.3212 32.1338C26.1705 32.4856 27.0808 32.6666 28 32.6666C29.8565 32.6666 31.637 31.9291 32.9498 30.6164C34.2625 29.3036 35 27.5231 35 25.6666C35 23.8101 34.2625 22.0296 32.9498 20.7169C31.637 19.4041 29.8565 18.6666 28 18.6666Z" fill="white"/>
</g>
<rect x="11.6972" y="9.74756" width="32.4111" height="32.4111" rx="16.2056" fill="white"/>
<g clip-path="url(#clip1_515_8607)">
<circle cx="35.5637" cy="25.5881" r="6.41187" fill="#FFB5BB"/>
<path d="M37.0288 22.1215H35.154V20.2468C35.154 19.1971 34.737 18.1904 33.9948 17.4482C33.2526 16.706 32.2459 16.289 31.1962 16.289H29.9537C28.7455 15.2266 27.0885 14.6226 25.3637 14.6226C21.8028 14.6226 18.9063 17.1451 18.9063 20.2468V34.4115C18.9063 34.7982 19.0599 35.1691 19.3334 35.4425C19.6068 35.716 19.9777 35.8696 20.3644 35.8696H33.6959C34.0826 35.8696 34.4535 35.716 34.7269 35.4425C35.0004 35.1691 35.154 34.7982 35.154 34.4115V33.3699H37.0288C37.6365 33.3699 38.2193 33.1285 38.649 32.6988C39.0787 32.2691 39.3201 31.6863 39.3201 31.0786V24.4129C39.3201 23.8052 39.0787 23.2223 38.649 22.7926C38.2193 22.3629 37.6365 22.1215 37.0288 22.1215ZM25.3637 15.8724C26.8614 15.8724 28.2883 16.4161 29.2788 17.3649C29.3951 17.4764 29.5499 17.5387 29.711 17.5388H31.1962C31.8056 17.539 32.3971 17.7447 32.8751 18.1227C33.3531 18.5007 33.6896 19.0289 33.8302 19.6219H20.2103C20.5727 17.5044 22.7453 15.8724 25.3637 15.8724ZM33.9042 34.4115C33.9042 34.4667 33.8822 34.5197 33.8432 34.5588C33.8041 34.5978 33.7511 34.6198 33.6959 34.6198H20.3644C20.3092 34.6198 20.2562 34.5978 20.2171 34.5588C20.1781 34.5197 20.1561 34.4667 20.1561 34.4115V20.8717H33.9042V34.4115ZM38.0703 31.0786C38.0703 31.3548 37.9605 31.6197 37.7652 31.8151C37.5699 32.0104 37.305 32.1201 37.0288 32.1201H35.154V23.3713H37.0288C37.305 23.3713 37.5699 23.4811 37.7652 23.6764C37.9605 23.8717 38.0703 24.1366 38.0703 24.4129V31.0786ZM25.1554 23.5796V31.9118C25.1554 32.0776 25.0896 32.2365 24.9724 32.3537C24.8552 32.4709 24.6962 32.5367 24.5305 32.5367C24.3648 32.5367 24.2058 32.4709 24.0886 32.3537C23.9714 32.2365 23.9056 32.0776 23.9056 31.9118V23.5796C23.9056 23.4139 23.9714 23.255 24.0886 23.1378C24.2058 23.0206 24.3648 22.9547 24.5305 22.9547C24.6962 22.9547 24.8552 23.0206 24.9724 23.1378C25.0896 23.255 25.1554 23.4139 25.1554 23.5796ZM30.1547 23.5796V31.9118C30.1547 32.0776 30.0889 32.2365 29.9717 32.3537C29.8545 32.4709 29.6955 32.5367 29.5298 32.5367C29.3641 32.5367 29.2051 32.4709 29.0879 32.3537C28.9707 32.2365 28.9049 32.0776 28.9049 31.9118V23.5796C28.9049 23.4139 28.9707 23.255 29.0879 23.1378C29.2051 23.0206 29.3641 22.9547 29.5298 22.9547C29.6955 22.9547 29.8545 23.0206 29.9717 23.1378C30.0889 23.255 30.1547 23.4139 30.1547 23.5796Z" fill="black"/>
</g>
</g>
<defs>
<filter id="filter0_d_515_8607" x="-3.00012" y="-1.43441" width="62.0011" height="67.7983" filterUnits="userSpaceOnUse" color-interpolation-filters="sRGB">
<feFlood flood-opacity="0" result="BackgroundImageFix"/>
<feColorMatrix in="SourceAlpha" type="matrix" values="0 0 0 0 0 0 0 0 0 0 0 0 0 0 0 0 0 0 127 0" result="hardAlpha"/>
<feOffset dy="3.89908"/>
<feGaussianBlur stdDeviation="5"/>
<feComposite in2="hardAlpha" operator="out"/>
<feColorMatrix type="matrix" values="0 0 0 0 0 0 0 0 0 0 0 0 0 0 0 0 0 0 0.25 0"/>
<feBlend mode="normal" in2="BackgroundImageFix" result="effect1_dropShadow_515_8607"/>
<feBlend mode="normal" in="SourceGraphic" in2="effect1_dropShadow_515_8607" result="shape"/>
</filter>
<clipPath id="clip0_515_8607">
<rect width="56" height="56" fill="white"/>
</clipPath>
<clipPath id="clip1_515_8607">
<rect width="23.9062" height="23.9062" fill="white" transform="translate(15.9497 14)"/>
</clipPath>
</defs>
</svg>
