<svg width="56" height="56" viewBox="0 0 56 56" fill="none" xmlns="http://www.w3.org/2000/svg">
<g clip-path="url(#clip0_389_431)">
<g filter="url(#filter0_d_389_431)">
<path d="M42.8493 10.8173C46.7048 14.6723 48.9098 19.8756 48.9982 25.3269C49.0866 30.7783 47.0514 36.0504 43.323 40.0283L42.8493 40.5183L32.949 50.4163C31.6928 51.6717 30.0064 52.4027 28.2314 52.4612C26.4564 52.5197 24.7255 51.9013 23.3893 50.7313L23.0533 50.4163L13.1507 40.516C9.21239 36.5777 6.99988 31.2362 6.99988 25.6666C6.99988 20.0971 9.21239 14.7556 13.1507 10.8173C17.089 6.87901 22.4304 4.6665 28 4.6665C33.5696 4.6665 38.9111 6.87901 42.8493 10.8173ZM28 18.6666C27.0808 18.6666 26.1705 18.8477 25.3212 19.1995C24.4719 19.5513 23.7003 20.0669 23.0503 20.7169C22.4002 21.3669 21.8846 22.1386 21.5328 22.9878C21.1811 23.8371 21 24.7474 21 25.6666C21 26.5859 21.1811 27.4961 21.5328 28.3454C21.8846 29.1947 22.4002 29.9664 23.0503 30.6164C23.7003 31.2664 24.4719 31.782 25.3212 32.1338C26.1705 32.4856 27.0808 32.6666 28 32.6666C29.8565 32.6666 31.637 31.9291 32.9498 30.6164C34.2625 29.3036 35 27.5231 35 25.6666C35 23.8101 34.2625 22.0296 32.9498 20.7169C31.637 19.4041 29.8565 18.6666 28 18.6666Z" fill="white"/>
</g>
<rect x="11.6973" y="9.74756" width="32.4111" height="32.4111" rx="16.2056" fill="#4278EA"/>
<path d="M25.5341 18.8475C25.7639 18.8475 25.9909 18.8976 26.1993 18.9943C26.4077 19.0911 26.5925 19.2322 26.7408 19.4077C26.889 19.5833 26.9972 19.7891 27.0577 20.0107C27.1182 20.2324 27.1296 20.4646 27.0912 20.6911L28.649 20.9517C28.709 20.5959 28.7077 20.2324 28.645 19.8771C28.9438 19.69 29.2966 19.6082 29.6473 19.6449C29.9979 19.6815 30.3262 19.8344 30.5798 20.0793C30.8335 20.3241 30.9979 20.6468 31.0469 20.9959C31.0959 21.3451 31.0267 21.7005 30.8503 22.0058H22.3759C22.2533 22.0056 22.1325 21.977 22.0229 21.922C21.9134 21.8671 21.8181 21.7875 21.7447 21.6894C21.6712 21.5913 21.6216 21.4774 21.5998 21.3568C21.578 21.2362 21.5845 21.1122 21.6189 20.9946C21.6533 20.8769 21.7146 20.7689 21.798 20.6791C21.8814 20.5893 21.9845 20.5201 22.0992 20.477C22.214 20.4339 22.3371 20.4182 22.459 20.4309C22.5809 20.4437 22.6981 20.4847 22.8015 20.5506C22.9078 20.6187 23.029 20.6603 23.1547 20.6719C23.2805 20.6835 23.4072 20.6648 23.5242 20.6173C23.6412 20.5698 23.7452 20.495 23.8273 20.399C23.9094 20.303 23.9673 20.1888 23.9961 20.0658C24.0775 19.719 24.2737 19.4099 24.5529 19.1888C24.8321 18.9676 25.1779 18.8473 25.5341 18.8475ZM26.7311 17.5029C26.0176 17.2105 25.2217 17.1893 24.4936 17.4433C23.7655 17.6972 23.1555 18.2088 22.7786 18.8815C22.2717 18.7939 21.75 18.8737 21.2925 19.1088C20.835 19.3439 20.4664 19.7216 20.2426 20.1848C20.0187 20.6479 19.9517 21.1713 20.0517 21.6759C20.1517 22.1805 20.4132 22.6389 20.7968 22.9817V32.2701C20.7968 32.6889 20.9631 33.0906 21.2593 33.3867C21.5554 33.6828 21.9571 33.8492 22.3759 33.8492H30.2715C30.6903 33.8492 31.092 33.6828 31.3881 33.3867C31.6843 33.0906 31.8507 32.6889 31.8507 32.2701H33.4298C33.8486 32.2701 34.2502 32.1037 34.5464 31.8076C34.8425 31.5114 35.0089 31.1098 35.0089 30.691V25.164C35.0089 24.7452 34.8425 24.3435 34.5464 24.0474C34.2502 23.7513 33.8486 23.5849 33.4298 23.5849H31.8507V23.3054C32.3415 22.7496 32.6211 22.0389 32.6406 21.2977C32.6602 20.5565 32.4183 19.8321 31.9573 19.2513C31.4964 18.6705 30.8458 18.2704 30.1195 18.1211C29.3933 17.9718 28.6376 18.0827 27.9849 18.4346C27.6516 18.0239 27.2205 17.7035 26.7311 17.5029ZM31.8507 30.691V25.164H33.4298V30.691H31.8507ZM23.955 25.164H25.5341V30.691H23.955V25.164ZM27.1133 25.164H28.6924V30.691H27.1133V25.164Z" fill="white"/>
</g>
<defs>
<filter id="filter0_d_389_431" x="-3.00012" y="-1.43441" width="62.0011" height="67.7983" filterUnits="userSpaceOnUse" color-interpolation-filters="sRGB">
<feFlood flood-opacity="0" result="BackgroundImageFix"/>
<feColorMatrix in="SourceAlpha" type="matrix" values="0 0 0 0 0 0 0 0 0 0 0 0 0 0 0 0 0 0 127 0" result="hardAlpha"/>
<feOffset dy="3.89908"/>
<feGaussianBlur stdDeviation="5"/>
<feComposite in2="hardAlpha" operator="out"/>
<feColorMatrix type="matrix" values="0 0 0 0 0 0 0 0 0 0 0 0 0 0 0 0 0 0 0.25 0"/>
<feBlend mode="normal" in2="BackgroundImageFix" result="effect1_dropShadow_389_431"/>
<feBlend mode="normal" in="SourceGraphic" in2="effect1_dropShadow_389_431" result="shape"/>
</filter>
<clipPath id="clip0_389_431">
<rect width="56" height="56" fill="white"/>
</clipPath>
</defs>
</svg>
