<svg width="85" height="85" viewBox="0 0 85 85" fill="none" xmlns="http://www.w3.org/2000/svg">
<g filter="url(#filter0_d_389_424)">
<path d="M42.12 8.91943C49.5459 8.91948 56.6679 11.8697 61.9188 17.1206C67.0591 22.2604 69.9992 29.1981 70.1171 36.4663C70.2349 43.7346 67.5208 50.7641 62.5497 56.0679L61.9188 56.7212L48.7186 69.9185C47.0438 71.5922 44.7951 72.566 42.4286 72.644C40.0621 72.722 37.754 71.8982 35.9725 70.3384L35.5243 69.9185L22.3212 56.7183C17.0703 51.4674 14.1201 44.3453 14.12 36.9194C14.12 29.4935 17.0703 22.3715 22.3212 17.1206C27.5721 11.8697 34.694 8.91943 42.12 8.91943Z" fill="#FC696A"/>
<path d="M38.5675 25.0728C38.9121 25.0727 39.2527 25.1479 39.5653 25.293C39.8779 25.4382 40.1551 25.6498 40.3774 25.9131C40.5998 26.1764 40.7621 26.4851 40.8528 26.8176C40.9436 27.1501 40.9607 27.4984 40.903 27.8382L43.2397 28.229C43.3298 27.6954 43.3278 27.1502 43.2338 26.6172C43.682 26.3365 44.2112 26.2139 44.7372 26.2688C45.2631 26.3238 45.7556 26.5532 46.136 26.9204C46.5165 27.2877 46.7632 27.7717 46.8367 28.2954C46.9102 28.8191 46.8063 29.3523 46.5417 29.8102H33.8301C33.6463 29.81 33.465 29.767 33.3007 29.6846C33.1363 29.6022 32.9934 29.4827 32.8833 29.3356C32.7731 29.1884 32.6987 29.0176 32.666 28.8367C32.6332 28.6558 32.643 28.4698 32.6946 28.2934C32.7462 28.1169 32.8382 27.9549 32.9633 27.8202C33.0883 27.6854 33.243 27.5816 33.4151 27.517C33.5872 27.4524 33.772 27.4288 33.9548 27.4479C34.1376 27.4671 34.3135 27.5285 34.4685 27.6274C34.628 27.7296 34.8097 27.792 34.9983 27.8094C35.187 27.8268 35.377 27.7988 35.5526 27.7275C35.7281 27.6563 35.884 27.544 36.0072 27.4C36.1303 27.2561 36.2172 27.0847 36.2604 26.9002C36.3825 26.38 36.6768 25.9164 37.0957 25.5847C37.5145 25.2529 38.0332 25.0725 38.5675 25.0728ZM40.3629 23.0558C39.2926 22.6173 38.0989 22.5855 37.0067 22.9664C35.9146 23.3473 34.9995 24.1147 34.4341 25.1237C33.6738 24.9923 32.8913 25.112 32.205 25.4647C31.5187 25.8174 30.9659 26.3839 30.6301 27.0786C30.2944 27.7734 30.1939 28.5585 30.3438 29.3154C30.4938 30.0723 30.8861 30.7598 31.4614 31.274V45.2067C31.4614 45.8349 31.711 46.4374 32.1552 46.8816C32.5994 47.3258 33.2019 47.5753 33.8301 47.5753H45.6736C46.3018 47.5753 46.9043 47.3258 47.3485 46.8816C47.7927 46.4374 48.0422 45.8349 48.0422 45.2067H50.4109C51.0392 45.2067 51.6416 44.9571 52.0859 44.5129C52.5301 44.0687 52.7796 43.4662 52.7796 42.838V34.5475C52.7796 33.9193 52.5301 33.3168 52.0859 32.8726C51.6416 32.4284 51.0392 32.1788 50.4109 32.1788H48.0422V31.7596C48.7785 30.926 49.198 29.8599 49.2272 28.7481C49.2565 27.6363 48.8936 26.5497 48.2022 25.6785C47.5108 24.8073 46.535 24.2072 45.4456 23.9832C44.3562 23.7592 43.2227 23.9256 42.2437 24.4534C41.7437 23.8374 41.097 23.3568 40.3629 23.0558ZM48.0422 42.838V34.5475H50.4109V42.838H48.0422ZM36.1988 34.5475H38.5675V42.838H36.1988V34.5475ZM40.9362 34.5475H43.3049V42.838H40.9362V34.5475Z" fill="white"/>
</g>
<defs>
<filter id="filter0_d_389_424" x="0.119995" y="0.378149" width="84.001" height="91.7295" filterUnits="userSpaceOnUse" color-interpolation-filters="sRGB">
<feFlood flood-opacity="0" result="BackgroundImageFix"/>
<feColorMatrix in="SourceAlpha" type="matrix" values="0 0 0 0 0 0 0 0 0 0 0 0 0 0 0 0 0 0 127 0" result="hardAlpha"/>
<feOffset dy="5.45872"/>
<feGaussianBlur stdDeviation="7"/>
<feComposite in2="hardAlpha" operator="out"/>
<feColorMatrix type="matrix" values="0 0 0 0 0 0 0 0 0 0 0 0 0 0 0 0 0 0 0.25 0"/>
<feBlend mode="normal" in2="BackgroundImageFix" result="effect1_dropShadow_389_424"/>
<feBlend mode="normal" in="SourceGraphic" in2="effect1_dropShadow_389_424" result="shape"/>
</filter>
</defs>
</svg>
