<svg width="23" height="23" viewBox="0 0 23 23" fill="none" xmlns="http://www.w3.org/2000/svg">
<rect x="0.199951" y="0.599854" width="22.4" height="22.4" rx="11.2" fill="#2A2A2E"/>
<path d="M11.4 14.7536L9.15725 15.7184C8.83405 15.8576 8.52705 15.8308 8.23625 15.638C7.94545 15.4456 7.80005 15.1766 7.80005 14.831V7.96936C7.80005 7.69296 7.89265 7.46236 8.07785 7.27756C8.26305 7.09276 8.49365 7.00016 8.76965 6.99976H14.031C14.307 6.99976 14.5376 7.09236 14.7228 7.27756C14.908 7.46276 15.0004 7.69336 15 7.96936V14.831C15 15.1766 14.8546 15.4456 14.5638 15.638C14.273 15.8308 13.966 15.8576 13.6428 15.7184L11.4 14.7536ZM11.4 14.0798L13.881 15.1502C14.0038 15.2042 14.121 15.1928 14.2326 15.116C14.3442 15.0388 14.4 14.9348 14.4 14.804V7.96996C14.4 7.87756 14.3616 7.79276 14.2848 7.71556C14.208 7.63836 14.1232 7.59976 14.0304 7.59976H8.76965C8.67725 7.59976 8.59245 7.63816 8.51525 7.71496C8.43805 7.79176 8.39965 7.87656 8.40005 7.96936V14.8046C8.40005 14.9354 8.45585 15.0392 8.56745 15.116C8.67905 15.1928 8.79625 15.2042 8.91905 15.1502L11.4 14.0798ZM11.4 7.59976H8.40005H14.4H11.4Z" fill="white"/>
</svg>
