<svg width="28" height="28" viewBox="0 0 28 28" fill="none" xmlns="http://www.w3.org/2000/svg">
<rect width="28" height="28" rx="14" fill="#2A2A2E"/>
<path d="M14 17.6922L11.1965 18.8982C10.7925 19.0722 10.4088 19.0387 10.0453 18.7977C9.68175 18.5572 9.5 18.221 9.5 17.789V9.212C9.5 8.8665 9.61575 8.57825 9.84725 8.34725C10.0787 8.11625 10.367 8.0005 10.712 8H17.2888C17.6338 8 17.922 8.11575 18.1535 8.34725C18.385 8.57875 18.5005 8.867 18.5 9.212V17.789C18.5 18.221 18.3183 18.5572 17.9548 18.7977C17.5913 19.0387 17.2075 19.0722 16.8035 18.8982L14 17.6922Z" fill="white"/>
</svg>
