<svg width="28" height="28" viewBox="0 0 28 28" fill="none" xmlns="http://www.w3.org/2000/svg">
<path d="M14 19.5384L9.79475 21.3474C9.18875 21.6084 8.61313 21.5581 8.06788 21.1966C7.52263 20.8359 7.25 20.3315 7.25 19.6835V6.818C7.25 6.29975 7.42362 5.86737 7.77087 5.52087C8.11812 5.17437 8.5505 5.00075 9.068 5H18.9331C19.4506 5 19.883 5.17362 20.2303 5.52087C20.5775 5.86812 20.7507 6.3005 20.75 6.818V19.6835C20.75 20.3315 20.4774 20.8359 19.9321 21.1966C19.3869 21.5581 18.8112 21.6084 18.2052 21.3474L14 19.5384ZM14 18.275L18.6519 20.282C18.8821 20.3832 19.1019 20.3619 19.3111 20.2179C19.5204 20.0731 19.625 19.8781 19.625 19.6329V6.81912C19.625 6.64587 19.553 6.48687 19.409 6.34212C19.265 6.19737 19.106 6.125 18.932 6.125H9.068C8.89475 6.125 8.73575 6.197 8.591 6.341C8.44625 6.485 8.37425 6.644 8.375 6.818V19.634C8.375 19.8792 8.47962 20.0739 8.68887 20.2179C8.89812 20.3619 9.11787 20.3832 9.34812 20.282L14 18.275ZM14 6.125H8.375H19.625H14Z" fill="#2A2A2E"/>
</svg>
