<svg width="17" height="16" viewBox="0 0 17 16" fill="none" xmlns="http://www.w3.org/2000/svg">
<path d="M12.92 5.33304H10.7867V3.19971H2.25333V7.46637C2.25896 8.40085 2.57123 9.30763 3.14217 10.0474C3.71311 10.7872 4.51114 11.3191 5.41367 11.5614C6.31621 11.8037 7.27333 11.743 8.13801 11.3886C9.0027 11.0342 9.72712 10.4057 10.2 9.59971H12.92C13.4858 9.59971 14.0284 9.37495 14.4285 8.97487C14.8286 8.57479 15.0533 8.03217 15.0533 7.46637C15.0533 6.90058 14.8286 6.35796 14.4285 5.95788C14.0284 5.5578 13.4858 5.33304 12.92 5.33304ZM12.92 8.53304H10.6373C10.732 8.18522 10.7821 7.82681 10.7867 7.46637V6.39971H12.92C13.2029 6.39971 13.4742 6.51209 13.6742 6.71213C13.8743 6.91217 13.9867 7.18348 13.9867 7.46637C13.9867 7.74927 13.8743 8.02058 13.6742 8.22062C13.4742 8.42066 13.2029 8.53304 12.92 8.53304ZM10.7867 13.333C10.7867 13.4745 10.7305 13.6101 10.6305 13.7102C10.5304 13.8102 10.3948 13.8664 10.2533 13.8664H2.78666C2.64521 13.8664 2.50956 13.8102 2.40954 13.7102C2.30952 13.6101 2.25333 13.4745 2.25333 13.333C2.25333 13.1916 2.30952 13.0559 2.40954 12.9559C2.50956 12.8559 2.64521 12.7997 2.78666 12.7997H10.2533C10.3948 12.7997 10.5304 12.8559 10.6305 12.9559C10.7305 13.0559 10.7867 13.1916 10.7867 13.333Z"/>
</svg>
