<svg width="62" height="69" viewBox="0 0 62 69" fill="none" xmlns="http://www.w3.org/2000/svg">
<g filter="url(#filter0_d_519_8672)">
<path d="M45.8489 13.1508C49.7043 17.0058 51.9094 22.2091 51.9978 27.6604C52.0862 33.1118 50.051 38.3838 46.3226 42.3618L45.8489 42.8518L35.9486 52.7498C34.6924 54.0052 33.006 54.7362 31.2309 54.7947C29.4559 54.8532 27.725 54.2348 26.3889 53.0648L26.0529 52.7498L16.1502 42.8495C12.212 38.9112 9.99945 33.5697 9.99945 28.0001C9.99945 22.4305 12.212 17.0891 16.1502 13.1508C20.0885 9.21251 25.43 7 30.9996 7C36.5692 7 41.9106 9.21251 45.8489 13.1508ZM30.9996 21.0001C30.0803 21.0001 29.1701 21.1812 28.3208 21.533C27.4715 21.8848 26.6998 22.4004 26.0498 23.0504C25.3998 23.7004 24.8842 24.4721 24.5324 25.3213C24.1806 26.1706 23.9996 27.0809 23.9996 28.0001C23.9996 28.9194 24.1806 29.8296 24.5324 30.6789C24.8842 31.5282 25.3998 32.2999 26.0498 32.9499C26.6998 33.5999 27.4715 34.1155 28.3208 34.4673C29.1701 34.8191 30.0803 35.0001 30.9996 35.0001C32.8561 35.0001 34.6366 34.2626 35.9493 32.9499C37.2621 31.6371 37.9996 29.8566 37.9996 28.0001C37.9996 26.1436 37.2621 24.3631 35.9493 23.0504C34.6366 21.7376 32.8561 21.0001 30.9996 21.0001Z" fill="white"/>
</g>
<rect x="14.6968" y="12.0811" width="32.4111" height="32.4111" rx="16.2056" fill="white"/>
<path d="M37.2189 24.7776H34.4116V21.9702H23.1822V27.5849C23.1896 28.8146 23.6006 30.0079 24.3519 30.9814C25.1032 31.9549 26.1534 32.6549 27.341 32.9737C28.5287 33.2926 29.7882 33.2127 30.9261 32.7463C32.064 32.2799 33.0173 31.4529 33.6396 30.3922H37.2189C37.9635 30.3922 38.6775 30.0965 39.204 29.57C39.7305 29.0435 40.0263 28.3294 40.0263 27.5849C40.0263 26.8403 39.7305 26.1263 39.204 25.5998C38.6775 25.0733 37.9635 24.7776 37.2189 24.7776ZM37.2189 28.9886H34.2151C34.3396 28.5309 34.4056 28.0592 34.4116 27.5849V26.1812H37.2189C37.5912 26.1812 37.9482 26.3291 38.2115 26.5923C38.4747 26.8556 38.6226 27.2126 38.6226 27.5849C38.6226 27.9572 38.4747 28.3142 38.2115 28.5774C37.9482 28.8407 37.5912 28.9886 37.2189 28.9886ZM34.4116 35.3051C34.4116 35.4912 34.3376 35.6697 34.206 35.8013C34.0744 35.933 33.8959 36.0069 33.7097 36.0069H23.8841C23.6979 36.0069 23.5194 35.933 23.3878 35.8013C23.2562 35.6697 23.1822 35.4912 23.1822 35.3051C23.1822 35.1189 23.2562 34.9404 23.3878 34.8088C23.5194 34.6772 23.6979 34.6032 23.8841 34.6032H33.7097C33.8959 34.6032 34.0744 34.6772 34.206 34.8088C34.3376 34.9404 34.4116 35.1189 34.4116 35.3051Z" fill="white"/>
<circle cx="35.6519" cy="25.786" r="7.25229" fill="#FFB5BB"/>
<path d="M37.9996 21.8335C38.5995 21.8317 39.1938 21.9499 39.7474 22.1812C40.301 22.4125 40.8027 22.7521 41.2232 23.1801C41.6436 23.6081 41.9742 24.1159 42.1955 24.6735C42.4168 25.2312 42.5244 25.8274 42.5119 26.4273C42.4994 27.0271 42.367 27.6183 42.1227 28.1663C41.8783 28.7142 41.5269 29.2078 41.089 29.6179C40.6511 30.028 40.1356 30.3464 39.5728 30.5544C39.0101 30.7624 38.4114 30.8558 37.8121 30.829C37.4798 32.118 36.7285 33.26 35.6763 34.0754C34.6241 34.8908 33.3307 35.3334 31.9996 35.3335H27.4996C25.9083 35.3335 24.3822 34.7014 23.2569 33.5761C22.1317 32.4509 21.4996 30.9248 21.4996 29.3335V21.0835C21.4996 20.8846 21.5786 20.6938 21.7192 20.5532C21.8599 20.4125 22.0507 20.3335 22.2496 20.3335H37.2496C37.4485 20.3335 37.6393 20.4125 37.7799 20.5532C37.9206 20.6938 37.9996 20.8846 37.9996 21.0835V21.8335ZM37.9996 23.3335V29.3335C38.7952 29.3335 39.5583 29.0174 40.1209 28.4548C40.6835 27.8922 40.9996 27.1291 40.9996 26.3335C40.9996 25.5378 40.6835 24.7748 40.1209 24.2122C39.5583 23.6496 38.7952 23.3335 37.9996 23.3335ZM22.2496 36.8335H37.2496C37.4485 36.8335 37.6393 36.9125 37.7799 37.0532C37.9206 37.1938 37.9996 37.3846 37.9996 37.5835C37.9996 37.7824 37.9206 37.9732 37.7799 38.1138C37.6393 38.2545 37.4485 38.3335 37.2496 38.3335H22.2496C22.0507 38.3335 21.8599 38.2545 21.7192 38.1138C21.5786 37.9732 21.4996 37.7824 21.4996 37.5835C21.4996 37.3846 21.5786 37.1938 21.7192 37.0532C21.8599 36.9125 22.0507 36.8335 22.2496 36.8335ZM22.9996 21.8335V29.3335C22.9996 30.527 23.4737 31.6716 24.3176 32.5155C25.1615 33.3594 26.3061 33.8335 27.4996 33.8335H31.9996C33.193 33.8335 34.3376 33.3594 35.1816 32.5155C36.0255 31.6716 36.4996 30.527 36.4996 29.3335V21.8335H22.9996Z" fill="black"/>
<defs>
<filter id="filter0_d_519_8672" x="-0.000549316" y="0.899082" width="62.0011" height="67.7983" filterUnits="userSpaceOnUse" color-interpolation-filters="sRGB">
<feFlood flood-opacity="0" result="BackgroundImageFix"/>
<feColorMatrix in="SourceAlpha" type="matrix" values="0 0 0 0 0 0 0 0 0 0 0 0 0 0 0 0 0 0 127 0" result="hardAlpha"/>
<feOffset dy="3.89908"/>
<feGaussianBlur stdDeviation="5"/>
<feComposite in2="hardAlpha" operator="out"/>
<feColorMatrix type="matrix" values="0 0 0 0 0 0 0 0 0 0 0 0 0 0 0 0 0 0 0.25 0"/>
<feBlend mode="normal" in2="BackgroundImageFix" result="effect1_dropShadow_519_8672"/>
<feBlend mode="normal" in="SourceGraphic" in2="effect1_dropShadow_519_8672" result="shape"/>
</filter>
</defs>
</svg>
