<svg width="56" height="56" viewBox="0 0 56 56" fill="none" xmlns="http://www.w3.org/2000/svg">
<g clip-path="url(#clip0_389_460)">
<g filter="url(#filter0_d_389_460)">
<path d="M42.8493 10.8173C46.7048 14.6723 48.9098 19.8756 48.9982 25.3269C49.0866 30.7783 47.0514 36.0504 43.323 40.0283L42.8493 40.5183L32.949 50.4163C31.6928 51.6717 30.0064 52.4027 28.2314 52.4612C26.4564 52.5197 24.7255 51.9013 23.3893 50.7313L23.0533 50.4163L13.1507 40.516C9.21239 36.5777 6.99988 31.2362 6.99988 25.6666C6.99988 20.0971 9.21239 14.7556 13.1507 10.8173C17.089 6.87901 22.4304 4.6665 28 4.6665C33.5696 4.6665 38.9111 6.87901 42.8493 10.8173ZM28 18.6666C27.0808 18.6666 26.1705 18.8477 25.3212 19.1995C24.4719 19.5513 23.7003 20.0669 23.0503 20.7169C22.4002 21.3669 21.8846 22.1386 21.5328 22.9878C21.1811 23.8371 21 24.7474 21 25.6666C21 26.5859 21.1811 27.4961 21.5328 28.3454C21.8846 29.1947 22.4002 29.9664 23.0503 30.6164C23.7003 31.2664 24.4719 31.782 25.3212 32.1338C26.1705 32.4856 27.0808 32.6666 28 32.6666C29.8565 32.6666 31.637 31.9291 32.9498 30.6164C34.2625 29.3036 35 27.5231 35 25.6666C35 23.8101 34.2625 22.0296 32.9498 20.7169C31.637 19.4041 29.8565 18.6666 28 18.6666Z" fill="white"/>
</g>
<rect x="11.6973" y="9.74756" width="32.4111" height="32.4111" rx="16.2056" fill="#4278EA"/>
<path d="M34.2193 22.4441H31.412V19.6367H20.1826V25.2514C20.19 26.4811 20.601 27.6744 21.3523 28.6479C22.1036 29.6214 23.1538 30.3214 24.3414 30.6402C25.5291 30.9591 26.7886 30.8792 27.9265 30.4128C29.0644 29.9464 30.0177 29.1194 30.64 28.0587H34.2193C34.9639 28.0587 35.6779 27.763 36.2044 27.2365C36.7309 26.71 37.0267 25.9959 37.0267 25.2514C37.0267 24.5068 36.7309 23.7928 36.2044 23.2663C35.6779 22.7398 34.9639 22.4441 34.2193 22.4441ZM34.2193 26.6551H31.2155C31.34 26.1974 31.406 25.7257 31.412 25.2514V23.8477H34.2193C34.5916 23.8477 34.9486 23.9956 35.2119 24.2589C35.4751 24.5221 35.623 24.8791 35.623 25.2514C35.623 25.6237 35.4751 25.9807 35.2119 26.2439C34.9486 26.5072 34.5916 26.6551 34.2193 26.6551ZM31.412 32.9716C31.412 33.1577 31.338 33.3362 31.2064 33.4679C31.0748 33.5995 30.8963 33.6734 30.7101 33.6734H20.8845C20.6983 33.6734 20.5198 33.5995 20.3882 33.4679C20.2566 33.3362 20.1826 33.1577 20.1826 32.9716C20.1826 32.7854 20.2566 32.6069 20.3882 32.4753C20.5198 32.3437 20.6983 32.2697 20.8845 32.2697H30.7101C30.8963 32.2697 31.0748 32.3437 31.2064 32.4753C31.338 32.6069 31.412 32.7854 31.412 32.9716Z" fill="white"/>
</g>
<defs>
<filter id="filter0_d_389_460" x="-3.00012" y="-1.43441" width="62.0011" height="67.7983" filterUnits="userSpaceOnUse" color-interpolation-filters="sRGB">
<feFlood flood-opacity="0" result="BackgroundImageFix"/>
<feColorMatrix in="SourceAlpha" type="matrix" values="0 0 0 0 0 0 0 0 0 0 0 0 0 0 0 0 0 0 127 0" result="hardAlpha"/>
<feOffset dy="3.89908"/>
<feGaussianBlur stdDeviation="5"/>
<feComposite in2="hardAlpha" operator="out"/>
<feColorMatrix type="matrix" values="0 0 0 0 0 0 0 0 0 0 0 0 0 0 0 0 0 0 0.25 0"/>
<feBlend mode="normal" in2="BackgroundImageFix" result="effect1_dropShadow_389_460"/>
<feBlend mode="normal" in="SourceGraphic" in2="effect1_dropShadow_389_460" result="shape"/>
</filter>
<clipPath id="clip0_389_460">
<rect width="56" height="56" fill="white"/>
</clipPath>
</defs>
</svg>
