<svg width="85" height="85" viewBox="0 0 85 85" fill="none" xmlns="http://www.w3.org/2000/svg">
<g filter="url(#filter0_d_389_453)">
<path d="M42.12 8.91943C49.5459 8.91948 56.6679 11.8697 61.9188 17.1206C67.0591 22.2604 69.9992 29.1981 70.1171 36.4663C70.2349 43.7346 67.5208 50.7641 62.5497 56.0679L61.9188 56.7212L48.7186 69.9185C47.0438 71.5922 44.7951 72.566 42.4286 72.644C40.0621 72.722 37.754 71.8982 35.9725 70.3384L35.5243 69.9185L22.3212 56.7183C17.0703 51.4674 14.1201 44.3453 14.12 36.9194C14.12 29.4935 17.0703 22.3715 22.3212 17.1206C27.5721 11.8697 34.694 8.91943 42.12 8.91943Z" fill="#FC696A"/>
<path d="M51.5952 32.0469H47.3842V27.8359H30.5401V36.258C30.5512 38.1025 31.1676 39.8924 32.2946 41.3527C33.4216 42.813 34.9968 43.863 36.7784 44.3412C38.5599 44.8195 40.4492 44.6996 42.156 44.0001C43.8628 43.3005 45.2927 42.06 46.2261 40.469H51.5952C52.712 40.469 53.7831 40.0253 54.5728 39.2356C55.3625 38.4459 55.8062 37.3748 55.8062 36.258C55.8062 35.1411 55.3625 34.07 54.5728 33.2803C53.7831 32.4906 52.712 32.0469 51.5952 32.0469ZM51.5952 38.3635H47.0894C47.2762 37.6769 47.3752 36.9694 47.3842 36.258V34.1525H51.5952C52.1536 34.1525 52.6891 34.3743 53.084 34.7691C53.4789 35.164 53.7007 35.6995 53.7007 36.258C53.7007 36.8164 53.4789 37.3519 53.084 37.7468C52.6891 38.1416 52.1536 38.3635 51.5952 38.3635ZM47.3842 47.8382C47.3842 48.1174 47.2733 48.3852 47.0758 48.5826C46.8784 48.7801 46.6106 48.891 46.3314 48.891H31.5929C31.3137 48.891 31.0459 48.7801 30.8485 48.5826C30.651 48.3852 30.5401 48.1174 30.5401 47.8382C30.5401 47.559 30.651 47.2913 30.8485 47.0938C31.0459 46.8964 31.3137 46.7855 31.5929 46.7855H46.3314C46.6106 46.7855 46.8784 46.8964 47.0758 47.0938C47.2733 47.2913 47.3842 47.559 47.3842 47.8382Z" fill="white"/>
</g>
<defs>
<filter id="filter0_d_389_453" x="0.119995" y="0.378149" width="84.0009" height="91.7295" filterUnits="userSpaceOnUse" color-interpolation-filters="sRGB">
<feFlood flood-opacity="0" result="BackgroundImageFix"/>
<feColorMatrix in="SourceAlpha" type="matrix" values="0 0 0 0 0 0 0 0 0 0 0 0 0 0 0 0 0 0 127 0" result="hardAlpha"/>
<feOffset dy="5.45872"/>
<feGaussianBlur stdDeviation="7"/>
<feComposite in2="hardAlpha" operator="out"/>
<feColorMatrix type="matrix" values="0 0 0 0 0 0 0 0 0 0 0 0 0 0 0 0 0 0 0.25 0"/>
<feBlend mode="normal" in2="BackgroundImageFix" result="effect1_dropShadow_389_453"/>
<feBlend mode="normal" in="SourceGraphic" in2="effect1_dropShadow_389_453" result="shape"/>
</filter>
</defs>
</svg>
