<svg width="14" height="15" viewBox="0 0 14 15" fill="none" xmlns="http://www.w3.org/2000/svg">
<g clip-path="url(#clip0_676_10961)">
<path d="M2.34325 10.9073C2.43407 10.9984 2.50367 11.1085 2.54707 11.2296C2.59048 11.3508 2.60663 11.48 2.59437 11.6081C2.53273 12.201 2.41614 12.7868 2.24612 13.3581C3.46675 13.0755 4.21225 12.7483 4.55088 12.5768C4.74294 12.4795 4.96413 12.4564 5.17212 12.512C5.76826 12.6716 6.38288 12.7516 7 12.75C10.4965 12.75 13.125 10.2939 13.125 7.5C13.125 4.70613 10.4965 2.25 7 2.25C3.5035 2.25 0.875 4.707 0.875 7.5C0.875 8.7845 1.41488 9.97625 2.34325 10.9073ZM1.91188 14.3241C1.70455 14.3652 1.49656 14.4028 1.288 14.437C1.113 14.465 0.98 14.283 1.04912 14.1203C1.12661 13.9369 1.19782 13.751 1.26262 13.5629L1.26525 13.5541C1.48225 12.9241 1.659 12.1996 1.72375 11.525C0.650125 10.4488 0 9.04 0 7.5C0 4.11725 3.13425 1.375 7 1.375C10.8658 1.375 14 4.11725 14 7.5C14 10.8828 10.8658 13.625 7 13.625C6.30666 13.6265 5.61614 13.5365 4.94637 13.3573C4.49137 13.5874 3.51225 14.0065 1.91188 14.3241Z" fill="#2A2A2E"/>
</g>
<defs>
<clipPath id="clip0_676_10961">
<rect width="14" height="14" fill="white" transform="translate(0 0.5)"/>
</clipPath>
</defs>
</svg>
