<svg width="16" height="16" viewBox="0 0 16 16" fill="none" xmlns="http://www.w3.org/2000/svg">
<g clip-path="url(#clip0_676_10369)">
<path d="M8.39793 15.5483C12.3468 15.5483 15.5481 12.3471 15.5481 8.39817C15.5481 4.44927 12.3468 1.24805 8.39793 1.24805C4.44902 1.24805 1.2478 4.44927 1.2478 8.39817C1.2478 12.3471 4.44902 15.5483 8.39793 15.5483Z" fill="#ED4C5C"/>
<path d="M6.01453 7.53976L7.92123 8.87445L7.20621 6.68175L9.11291 5.29939H6.75337L6.01453 3.15435L5.29951 5.29939H2.91614L4.82284 6.68175L4.10783 8.87445L6.01453 7.53976ZM9.18442 9.18429L8.63624 9.30346L9.16058 9.51797V10.0661L9.51809 9.66097L10.0424 9.85164L9.73259 9.3988L10.0663 8.96979L9.51809 9.08896L9.18442 8.63612V9.18429ZM9.99476 7.5636L9.58959 7.9211L10.1378 7.87344L10.3761 8.39778L10.4714 7.8496L11.0196 7.80194L10.5429 7.51593L10.6621 6.96775L10.2569 7.32526L9.78026 7.03926L9.99476 7.5636ZM10.1378 5.70457L10.3046 6.25274L10.4714 5.7284H11.0196L10.5906 5.39473L10.7574 4.84655L10.3046 5.18022L9.8756 4.82272L10.0424 5.37089L9.58959 5.68073L10.1378 5.70457ZM9.18442 3.79786V4.34604L9.51809 3.8932L10.0663 4.01237L9.73259 3.58336L10.0424 3.13052L9.51809 3.34502L9.16058 2.91602V3.46419L8.63624 3.6787L9.18442 3.79786Z" fill="#FFE62E"/>
</g>
<defs>
<clipPath id="clip0_676_10369">
<rect width="15" height="15" fill="white" transform="translate(0.799988 0.799805)"/>
</clipPath>
</defs>
</svg>
