<svg width="17" height="16" viewBox="0 0 17 16" fill="none" xmlns="http://www.w3.org/2000/svg">
<g clip-path="url(#clip0_375_10493)">
<path d="M15.2752 4.71988C15.3008 4.81268 15.2685 4.91508 15.2144 4.99508L13.4896 7.56148C13.4256 7.66068 13.2912 7.71508 13.1789 7.71508C13.1469 7.71508 13.0573 7.70868 13.0224 7.69908L11.64 7.35988V13.4399C11.64 13.6255 11.5088 13.7599 11.32 13.7599H4.60001C4.41121 13.7599 4.28001 13.6255 4.28001 13.4399V7.35988L3.03841 7.70228C2.89441 7.74708 2.76961 7.68948 2.68961 7.56468L0.977609 5.00468C0.923209 4.92148 0.907209 4.82868 0.932809 4.73588C0.955209 4.63988 1.02241 4.57588 1.10881 4.53108L4.60001 2.87988H6.20001C6.38881 2.87988 6.52001 3.01108 6.52001 3.19988C6.52001 3.85908 7.44481 4.32628 8.10401 4.32628C8.76321 4.32628 9.72001 3.86228 9.72001 3.19988C9.72001 3.01428 9.85121 2.87988 10.04 2.87988H11.64L15.096 4.49908C15.1856 4.54388 15.2496 4.62388 15.2752 4.71988Z" fill="#2A2A2E"/>
<path d="M15.2751 4.71988C15.3007 4.81268 15.2684 4.91508 15.2143 4.99508L13.4895 7.56148C13.4255 7.66068 13.2911 7.71508 13.1788 7.71508C13.1468 7.71508 13.0572 7.70868 13.0223 7.69908L11.6399 7.35988V13.4399C11.6399 13.6255 11.5087 13.7599 11.3199 13.7599H4.59995C4.41115 13.7599 4.27995 13.6255 4.27995 13.4399V7.35988L3.03835 7.70228C2.89435 7.74708 2.76955 7.68948 2.68955 7.56468L0.977548 5.00468C0.923148 4.92148 0.907148 4.82868 0.932748 4.73588C0.955148 4.63988 1.02235 4.57588 1.10875 4.53108L4.59995 2.87988H6.19995C6.38875 2.87988 6.51995 3.01108 6.51995 3.19988C6.51995 3.85908 7.44475 4.32628 8.10395 4.32628C8.76315 4.32628 9.71995 3.86228 9.71995 3.19988C9.71995 3.01428 9.85115 2.87988 10.0399 2.87988H11.6399L15.0959 4.49908C15.1855 4.54388 15.2495 4.62388 15.2751 4.71988Z" fill="#2A2A2E"/>
</g>
<defs>
<clipPath id="clip0_375_10493">
<rect width="16" height="16" fill="white" transform="translate(0.119995)"/>
</clipPath>
</defs>
</svg>
