<svg width="85" height="85" viewBox="0 0 85 85" fill="none" xmlns="http://www.w3.org/2000/svg">
<g filter="url(#filter0_d_389_354)">
<path d="M42.12 8.91943C49.5459 8.91948 56.6679 11.8697 61.9188 17.1206C67.0591 22.2604 69.9992 29.1981 70.1171 36.4663C70.2349 43.7346 67.5208 50.7641 62.5497 56.0679L61.9188 56.7212L48.7186 69.9185C47.0438 71.5922 44.7951 72.566 42.4286 72.644C40.0621 72.722 37.754 71.8982 35.9725 70.3384L35.5243 69.9185L22.3212 56.7183C17.0703 51.4674 14.1201 44.3453 14.12 36.9194C14.12 29.4935 17.0703 22.3715 22.3212 17.1206C27.5721 11.8697 34.694 8.91943 42.12 8.91943Z" fill="#FC696A"/>
<path d="M56.8326 31.2242C56.8852 31.4151 56.8188 31.6256 56.7076 31.7901L53.1611 37.067C53.0295 37.271 52.7532 37.3828 52.5222 37.3828C52.4564 37.3828 52.2722 37.3697 52.2005 37.3499L49.358 36.6525V49.1539C49.358 49.5356 49.0883 49.8119 48.7001 49.8119H34.8827C34.4945 49.8119 34.2247 49.5356 34.2247 49.1539V36.6525L31.6718 37.3565C31.3757 37.4486 31.1191 37.3302 30.9546 37.0736L27.4345 31.8098C27.3226 31.6388 27.2897 31.448 27.3424 31.2571C27.3884 31.0598 27.5266 30.9282 27.7042 30.836L34.8827 27.4409H38.1725C38.5608 27.4409 38.8305 27.7107 38.8305 28.0989C38.8305 29.4543 40.7321 30.4149 42.0875 30.4149C43.4429 30.4149 45.4102 29.4609 45.4102 28.0989C45.4102 27.7173 45.68 27.4409 46.0682 27.4409H49.358L56.4641 30.7702C56.6484 30.8624 56.7799 31.0269 56.8326 31.2242Z" fill="white"/>
<path d="M56.7809 31.3224C56.8336 31.5132 56.7671 31.7238 56.6559 31.8882L53.1095 37.1652C52.9779 37.3691 52.7015 37.481 52.4706 37.481C52.4048 37.481 52.2206 37.4678 52.1488 37.4481L49.3064 36.7506V49.2521C49.3064 49.6337 49.0366 49.91 48.6484 49.91H34.8311C34.4429 49.91 34.1731 49.6337 34.1731 49.2521V36.7506L31.6202 37.4547C31.3241 37.5468 31.0675 37.4284 30.903 37.1717L27.3828 31.908C27.271 31.7369 27.2381 31.5461 27.2907 31.3553C27.3368 31.1579 27.475 31.0263 27.6526 30.9342L34.8311 27.5391H38.1209C38.5091 27.5391 38.7789 27.8088 38.7789 28.197C38.7789 29.5525 40.6804 30.5131 42.0358 30.5131C43.3913 30.5131 45.3586 29.559 45.3586 28.197C45.3586 27.8154 45.6284 27.5391 46.0166 27.5391H49.3064L56.4125 30.8684C56.5967 30.9605 56.7283 31.125 56.7809 31.3224Z" fill="white"/>
</g>
<defs>
<filter id="filter0_d_389_354" x="0.119995" y="0.378149" width="84.001" height="91.7295" filterUnits="userSpaceOnUse" color-interpolation-filters="sRGB">
<feFlood flood-opacity="0" result="BackgroundImageFix"/>
<feColorMatrix in="SourceAlpha" type="matrix" values="0 0 0 0 0 0 0 0 0 0 0 0 0 0 0 0 0 0 127 0" result="hardAlpha"/>
<feOffset dy="5.45872"/>
<feGaussianBlur stdDeviation="7"/>
<feComposite in2="hardAlpha" operator="out"/>
<feColorMatrix type="matrix" values="0 0 0 0 0 0 0 0 0 0 0 0 0 0 0 0 0 0 0.25 0"/>
<feBlend mode="normal" in2="BackgroundImageFix" result="effect1_dropShadow_389_354"/>
<feBlend mode="normal" in="SourceGraphic" in2="effect1_dropShadow_389_354" result="shape"/>
</filter>
</defs>
</svg>
