<svg width="56" height="56" viewBox="0 0 56 56" fill="none" xmlns="http://www.w3.org/2000/svg">
<g clip-path="url(#clip0_389_374)">
<g filter="url(#filter0_d_389_374)">
<path d="M42.8493 10.8173C46.7048 14.6723 48.9098 19.8756 48.9982 25.3269C49.0866 30.7783 47.0514 36.0504 43.323 40.0283L42.8493 40.5183L32.949 50.4163C31.6928 51.6717 30.0064 52.4027 28.2314 52.4612C26.4564 52.5197 24.7255 51.9013 23.3893 50.7313L23.0533 50.4163L13.1507 40.516C9.21239 36.5777 6.99988 31.2362 6.99988 25.6666C6.99988 20.0971 9.21239 14.7556 13.1507 10.8173C17.089 6.87901 22.4304 4.6665 28 4.6665C33.5696 4.6665 38.9111 6.87901 42.8493 10.8173ZM28 18.6666C27.0808 18.6666 26.1705 18.8477 25.3212 19.1995C24.4719 19.5513 23.7003 20.0669 23.0503 20.7169C22.4002 21.3669 21.8846 22.1386 21.5328 22.9878C21.1811 23.8371 21 24.7474 21 25.6666C21 26.5859 21.1811 27.4961 21.5328 28.3454C21.8846 29.1947 22.4002 29.9664 23.0503 30.6164C23.7003 31.2664 24.4719 31.782 25.3212 32.1338C26.1705 32.4856 27.0808 32.6666 28 32.6666C29.8565 32.6666 31.637 31.9291 32.9498 30.6164C34.2625 29.3036 35 27.5231 35 25.6666C35 23.8101 34.2625 22.0296 32.9498 20.7169C31.637 19.4041 29.8565 18.6666 28 18.6666Z" fill="white"/>
</g>
<rect x="11.6973" y="9.74756" width="32.4111" height="32.4111" rx="16.2056" fill="#4278EA"/>
<path d="M37.7109 21.4568C37.746 21.584 37.7017 21.7244 37.6276 21.834L35.2633 25.352C35.1755 25.488 34.9913 25.5625 34.8373 25.5625C34.7935 25.5625 34.6706 25.5538 34.6228 25.5406L32.7279 25.0756V33.4099C32.7279 33.6643 32.548 33.8486 32.2892 33.8486H23.0776C22.8188 33.8486 22.639 33.6643 22.639 33.4099V25.0756L20.937 25.545C20.7397 25.6064 20.5686 25.5274 20.4589 25.3564L18.1122 21.8472C18.0376 21.7331 18.0157 21.6059 18.0508 21.4787C18.0815 21.3471 18.1736 21.2594 18.292 21.198L23.0776 18.9346H25.2709C25.5297 18.9346 25.7095 19.1144 25.7095 19.3732C25.7095 20.2768 26.9772 20.9173 27.8808 20.9173C28.7844 20.9173 30.096 20.2812 30.096 19.3732C30.096 19.1188 30.2758 18.9346 30.5346 18.9346H32.7279L37.4653 21.1541C37.5881 21.2155 37.6758 21.3252 37.7109 21.4568Z" fill="white"/>
<path d="M37.6765 21.5222C37.7116 21.6494 37.6673 21.7898 37.5931 21.8995L35.2288 25.4174C35.1411 25.5534 34.9569 25.628 34.8029 25.628C34.759 25.628 34.6362 25.6192 34.5884 25.606L32.6934 25.1411V33.4753C32.6934 33.7298 32.5136 33.914 32.2548 33.914H23.0432C22.7844 33.914 22.6046 33.7298 22.6046 33.4753V25.1411L20.9026 25.6104C20.7052 25.6718 20.5342 25.5929 20.4245 25.4218L18.0777 21.9126C18.0032 21.7986 17.9812 21.6714 18.0163 21.5442C18.047 21.4126 18.1391 21.3248 18.2576 21.2634L23.0432 19H25.2365C25.4953 19 25.6751 19.1798 25.6751 19.4386C25.6751 20.3423 26.9428 20.9827 27.8464 20.9827C28.75 20.9827 30.0616 20.3466 30.0616 19.4386C30.0616 19.1842 30.2414 19 30.5002 19H32.6934L37.4308 21.2196C37.5537 21.281 37.6414 21.3906 37.6765 21.5222Z" fill="white"/>
</g>
<defs>
<filter id="filter0_d_389_374" x="-3.00012" y="-1.43441" width="62.0011" height="67.7983" filterUnits="userSpaceOnUse" color-interpolation-filters="sRGB">
<feFlood flood-opacity="0" result="BackgroundImageFix"/>
<feColorMatrix in="SourceAlpha" type="matrix" values="0 0 0 0 0 0 0 0 0 0 0 0 0 0 0 0 0 0 127 0" result="hardAlpha"/>
<feOffset dy="3.89908"/>
<feGaussianBlur stdDeviation="5"/>
<feComposite in2="hardAlpha" operator="out"/>
<feColorMatrix type="matrix" values="0 0 0 0 0 0 0 0 0 0 0 0 0 0 0 0 0 0 0.25 0"/>
<feBlend mode="normal" in2="BackgroundImageFix" result="effect1_dropShadow_389_374"/>
<feBlend mode="normal" in="SourceGraphic" in2="effect1_dropShadow_389_374" result="shape"/>
</filter>
<clipPath id="clip0_389_374">
<rect width="56" height="56" fill="white"/>
</clipPath>
</defs>
</svg>
