<svg width="56" height="56" viewBox="0 0 56 56" fill="none" xmlns="http://www.w3.org/2000/svg">
<g clip-path="url(#clip0_515_8535)">
<g filter="url(#filter0_d_515_8535)">
<path d="M42.8493 10.8173C46.7048 14.6723 48.9098 19.8756 48.9982 25.3269C49.0866 30.7783 47.0514 36.0504 43.323 40.0283L42.8493 40.5183L32.949 50.4163C31.6928 51.6717 30.0064 52.4027 28.2314 52.4612C26.4564 52.5197 24.7255 51.9013 23.3893 50.7313L23.0533 50.4163L13.1507 40.516C9.21239 36.5777 6.99988 31.2362 6.99988 25.6666C6.99988 20.0971 9.21239 14.7556 13.1507 10.8173C17.089 6.87901 22.4304 4.6665 28 4.6665C33.5696 4.6665 38.9111 6.87901 42.8493 10.8173ZM28 18.6666C27.0808 18.6666 26.1705 18.8477 25.3212 19.1995C24.4719 19.5513 23.7003 20.0669 23.0503 20.7169C22.4002 21.3669 21.8846 22.1386 21.5328 22.9878C21.1811 23.8371 21 24.7474 21 25.6666C21 26.5859 21.1811 27.4961 21.5328 28.3454C21.8846 29.1947 22.4002 29.9664 23.0503 30.6164C23.7003 31.2664 24.4719 31.782 25.3212 32.1338C26.1705 32.4856 27.0808 32.6666 28 32.6666C29.8565 32.6666 31.637 31.9291 32.9498 30.6164C34.2625 29.3036 35 27.5231 35 25.6666C35 23.8101 34.2625 22.0296 32.9498 20.7169C31.637 19.4041 29.8565 18.6666 28 18.6666Z" fill="white"/>
</g>
<rect x="11" y="9" width="33.3027" height="33.3027" rx="16.6514" fill="white"/>
<circle cx="33.5011" cy="26.3119" r="5.74984" fill="#FFB5BB"/>
<path d="M23.7963 16.5225C23.8349 17.4706 24.5008 18.1748 25.1772 18.6045C25.8903 19.0574 26.7887 19.3271 27.5717 19.3271C28.352 19.3271 29.2631 19.0605 29.9897 18.6113C30.676 18.1871 31.369 17.4833 31.4086 16.5225H34.27L40.7475 19.5576L37.4428 24.4746C37.4372 24.4768 37.431 24.4799 37.4243 24.4814C37.4181 24.4828 37.4141 24.4842 37.4125 24.4844C37.4143 24.4844 37.4061 24.4835 37.3871 24.4824C37.3692 24.4814 37.3479 24.4805 37.3266 24.4785C37.3047 24.4765 37.2868 24.4743 37.2748 24.4727C37.272 24.4723 37.27 24.4718 37.269 24.4717C37.27 24.4719 37.2727 24.4727 37.2768 24.4736L34.5961 23.8154L33.7211 23.6006V36.2051H20.8637V23.5732L19.9682 23.8203L17.6323 24.4639L14.3911 19.6172L20.937 16.5225H23.7963Z" stroke="black" stroke-width="1.41458"/>
</g>
<defs>
<filter id="filter0_d_515_8535" x="-3.00012" y="-1.43441" width="62.0011" height="67.7983" filterUnits="userSpaceOnUse" color-interpolation-filters="sRGB">
<feFlood flood-opacity="0" result="BackgroundImageFix"/>
<feColorMatrix in="SourceAlpha" type="matrix" values="0 0 0 0 0 0 0 0 0 0 0 0 0 0 0 0 0 0 127 0" result="hardAlpha"/>
<feOffset dy="3.89908"/>
<feGaussianBlur stdDeviation="5"/>
<feComposite in2="hardAlpha" operator="out"/>
<feColorMatrix type="matrix" values="0 0 0 0 0 0 0 0 0 0 0 0 0 0 0 0 0 0 0.25 0"/>
<feBlend mode="normal" in2="BackgroundImageFix" result="effect1_dropShadow_515_8535"/>
<feBlend mode="normal" in="SourceGraphic" in2="effect1_dropShadow_515_8535" result="shape"/>
</filter>
<clipPath id="clip0_515_8535">
<rect width="56" height="56" fill="white"/>
</clipPath>
</defs>
</svg>
