<svg width="14" height="13" viewBox="0 0 14 13" fill="none" xmlns="http://www.w3.org/2000/svg">
<g clip-path="url(#clip0_333_434)">
<mask id="mask0_333_434" style="mask-type:luminance" maskUnits="userSpaceOnUse" x="0" y="0" width="14" height="13">
<path d="M7.2998 13C10.8897 13 13.7998 10.0899 13.7998 6.5C13.7998 2.91015 10.8897 0 7.2998 0C3.70995 0 0.799805 2.91015 0.799805 6.5C0.799805 10.0899 3.70995 13 7.2998 13Z" fill="white"/>
</mask>
<g mask="url(#mask0_333_434)">
<path d="M7.2998 0H13.7998V1.625L12.9873 2.4375L13.7998 3.25V4.875L12.9873 5.6875L13.7998 6.5V8.125L12.9873 8.9375L13.7998 9.75V11.375L7.2998 12.1875L0.799805 11.375V9.75L1.6123 8.9375L0.799805 8.125V6.5L7.2998 0Z" fill="#EEEEEE"/>
<path d="M6.4873 1.625H13.7998V3.25H6.4873V1.625ZM6.4873 4.875H13.7998V6.5H7.2998L6.4873 4.875ZM0.799805 8.125H13.7998V9.75H0.799805V8.125ZM0.799805 11.375H13.7998V13H0.799805V11.375Z" fill="#D80027"/>
<path d="M0.799805 0H7.2998V6.5H0.799805V0Z" fill="#0052B4"/>
<path d="M5.54785 6.16992L6.99512 5.12891H5.21777L6.66504 6.16992L6.10645 4.46875L5.54785 6.16992ZM3.49121 6.16992L4.93848 5.12891H3.16113L4.6084 6.16992L4.0498 4.46875L3.49121 6.16992ZM1.43457 6.16992L2.88184 5.12891H1.10449L2.55176 6.16992L1.99316 4.46875L1.43457 6.16992ZM5.54785 4.11328L6.99512 3.07227H5.21777L6.66504 4.11328L6.10645 2.41211L5.54785 4.11328ZM3.49121 4.11328L4.93848 3.07227H3.16113L4.6084 4.11328L4.0498 2.41211L3.49121 4.11328ZM1.43457 4.11328L2.88184 3.07227H1.10449L2.55176 4.11328L1.99316 2.41211L1.43457 4.11328ZM5.54785 2.03125L6.99512 0.990234H5.21777L6.66504 2.03125L6.10645 0.330078L5.54785 2.03125ZM3.49121 2.03125L4.93848 0.990234H3.16113L4.6084 2.03125L4.0498 0.330078L3.49121 2.03125ZM1.43457 2.03125L2.88184 0.990234H1.10449L2.55176 2.03125L1.99316 0.330078L1.43457 2.03125Z" fill="#EEEEEE"/>
</g>
</g>
<defs>
<clipPath id="clip0_333_434">
<rect width="13" height="13" fill="white" transform="translate(0.799805)"/>
</clipPath>
</defs>
</svg>
