<svg width="23" height="23" viewBox="0 0 23 23" fill="none" xmlns="http://www.w3.org/2000/svg">
<rect x="0.200195" y="0.599854" width="22.4" height="22.4" rx="11.2" fill="#2A2A2E"/>
<path d="M11.4003 14.7536L9.15749 15.7184C8.83429 15.8576 8.52729 15.8308 8.23649 15.638C7.94569 15.4456 7.80029 15.1766 7.80029 14.831V7.96936C7.80029 7.69296 7.89289 7.46236 8.07809 7.27756C8.26329 7.09276 8.49389 7.00016 8.76989 6.99976H14.0313C14.3073 6.99976 14.5379 7.09236 14.7231 7.27756C14.9083 7.46276 15.0007 7.69336 15.0003 7.96936V14.831C15.0003 15.1766 14.8549 15.4456 14.5641 15.638C14.2733 15.8308 13.9663 15.8576 13.6431 15.7184L11.4003 14.7536ZM11.4003 14.0798L13.8813 15.1502C14.0041 15.2042 14.1213 15.1928 14.2329 15.116C14.3445 15.0388 14.4003 14.9348 14.4003 14.804V7.96996C14.4003 7.87756 14.3619 7.79276 14.2851 7.71556C14.2083 7.63836 14.1235 7.59976 14.0307 7.59976H8.76989C8.67749 7.59976 8.59269 7.63816 8.51549 7.71496C8.43829 7.79176 8.39989 7.87656 8.40029 7.96936V14.8046C8.40029 14.9354 8.45609 15.0392 8.56769 15.116C8.67929 15.1928 8.79649 15.2042 8.91929 15.1502L11.4003 14.0798ZM11.4003 7.59976H8.40029H14.4003H11.4003Z" fill="white"/>
</svg>
