<svg width="16" height="16" viewBox="0 0 16 16" fill="none" xmlns="http://www.w3.org/2000/svg">
<path fill-rule="evenodd" clip-rule="evenodd" d="M13.23 7.37037C13.23 7.10681 13.1748 6.84617 13.068 6.6052C12.9613 6.36423 12.8053 6.14825 12.6101 5.97114C12.927 5.12757 12.7474 4.09878 11.9921 3.48768C11.6755 3.23142 11.2926 3.07042 10.8881 3.02346C10.4835 2.9765 10.0739 3.04551 9.70705 3.22245C9.52396 2.97876 9.28953 2.77831 9.02035 2.63529C8.50186 2.35872 7.88446 2.29509 7.29352 2.41101C6.92965 2.48192 6.58742 2.63703 6.29424 2.86392C6.00106 3.09081 5.76506 3.38318 5.60512 3.71763C5.54798 3.68448 5.48956 3.65358 5.42998 3.62502C4.88818 3.36861 4.23865 3.33396 3.59416 3.65841C2.70838 4.10445 2.25226 5.1408 2.43244 6.08391C2.3308 6.17505 2.24092 6.27984 2.1628 6.39828C1.9738 6.68808 1.89001 7.02261 1.89001 7.37037C1.89001 7.53691 1.95595 7.69668 2.07342 7.81474C2.19089 7.9328 2.35032 7.99954 2.51686 8.00037H12.6032C12.7697 7.99954 12.9291 7.9328 13.0466 7.81474C13.1641 7.69668 13.23 7.53691 13.23 7.37037ZM8.88931 6.88842C8.81988 6.73647 8.69293 6.61831 8.53639 6.55995C8.37985 6.50159 8.20653 6.50779 8.05456 6.5772C7.90252 6.64663 7.72912 6.65281 7.57251 6.59438C7.41591 6.53596 7.28892 6.41772 7.2195 6.26567C7.15008 6.11362 7.1439 5.94022 7.20232 5.78361C7.26074 5.62701 7.37899 5.50003 7.53103 5.4306C7.98701 5.22241 8.50702 5.20389 8.97666 5.3791C9.44629 5.55431 9.82709 5.90891 10.0353 6.36489C10.1046 6.51694 10.1107 6.69031 10.0522 6.84685C9.99376 7.0034 9.87548 7.1303 9.72343 7.19964C9.57139 7.26898 9.39802 7.27508 9.24147 7.2166C9.08493 7.15812 8.95803 7.03984 8.88868 6.88779" fill="#2A2A2E"/>
<path d="M12.8268 10.0309C13.0045 9.65604 12.7033 9.25977 12.2888 9.25977H2.83122C2.41668 9.25977 2.11554 9.65667 2.29383 10.0309C2.83122 11.1617 3.81654 12.067 5.02551 12.5962V13.0398C5.02551 13.2069 5.09188 13.3671 5.21003 13.4852C5.32818 13.6034 5.48842 13.6698 5.65551 13.6698H9.46449C9.63157 13.6698 9.79182 13.6034 9.90997 13.4852C10.0281 13.3671 10.0945 13.2069 10.0945 13.0398V12.5962C11.3028 12.067 12.2888 11.1617 12.8262 10.0309" fill="#2A2A2E"/>
</svg>
