<svg width="56" height="56" viewBox="0 0 56 56" fill="none" xmlns="http://www.w3.org/2000/svg">
<g clip-path="url(#clip0_389_311)">
<g filter="url(#filter0_d_389_311)">
<path d="M42.8493 10.8173C46.7048 14.6723 48.9098 19.8756 48.9982 25.3269C49.0866 30.7783 47.0514 36.0504 43.323 40.0283L42.8493 40.5183L32.949 50.4163C31.6928 51.6717 30.0064 52.4027 28.2314 52.4612C26.4564 52.5197 24.7255 51.9013 23.3893 50.7313L23.0533 50.4163L13.1507 40.516C9.21239 36.5777 6.99988 31.2362 6.99988 25.6666C6.99988 20.0971 9.21239 14.7556 13.1507 10.8173C17.089 6.87901 22.4304 4.6665 28 4.6665C33.5696 4.6665 38.9111 6.87901 42.8493 10.8173ZM28 18.6666C27.0808 18.6666 26.1705 18.8477 25.3212 19.1995C24.4719 19.5513 23.7003 20.0669 23.0503 20.7169C22.4002 21.3669 21.8846 22.1386 21.5328 22.9878C21.1811 23.8371 21 24.7474 21 25.6666C21 26.5859 21.1811 27.4961 21.5328 28.3454C21.8846 29.1947 22.4002 29.9664 23.0503 30.6164C23.7003 31.2664 24.4719 31.782 25.3212 32.1338C26.1705 32.4856 27.0808 32.6666 28 32.6666C29.8565 32.6666 31.637 31.9291 32.9498 30.6164C34.2625 29.3036 35 27.5231 35 25.6666C35 23.8101 34.2625 22.0296 32.9498 20.7169C31.637 19.4041 29.8565 18.6666 28 18.6666Z" fill="white"/>
</g>
<rect x="11.6973" y="9.74756" width="32.4111" height="32.4111" rx="16.2056" fill="#4278EA"/>
<path fill-rule="evenodd" clip-rule="evenodd" d="M35.7985 25.0765C35.7984 24.7095 35.7216 24.3465 35.5729 24.011C35.4242 23.6754 35.207 23.3746 34.9352 23.128C35.3765 21.9533 35.1265 20.5207 34.0746 19.6697C33.6338 19.3129 33.1006 19.0887 32.5372 19.0233C31.9739 18.9579 31.4035 19.054 30.8927 19.3004C30.6377 18.961 30.3112 18.6819 29.9364 18.4827C29.2144 18.0976 28.3547 18.009 27.5317 18.1704C27.025 18.2692 26.5485 18.4852 26.1402 18.8011C25.7319 19.1171 25.4033 19.5242 25.1806 19.9899C25.101 19.9438 25.0197 19.9007 24.9367 19.861C24.1822 19.5039 23.2778 19.4556 22.3803 19.9075C21.1468 20.5286 20.5116 21.9717 20.7626 23.285C20.621 23.412 20.4959 23.5579 20.3871 23.7228C20.1239 24.1264 20.0072 24.5922 20.0072 25.0765C20.0072 25.3084 20.099 25.5309 20.2626 25.6953C20.4262 25.8597 20.6482 25.9526 20.8801 25.9538H34.9256C35.1575 25.9526 35.3795 25.8597 35.5431 25.6953C35.7067 25.5309 35.7985 25.3084 35.7985 25.0765ZM29.7539 24.4053C29.6572 24.1937 29.4805 24.0292 29.2625 23.9479C29.0445 23.8667 28.8031 23.8753 28.5915 23.972C28.3798 24.0686 28.1383 24.0772 27.9202 23.9959C27.7022 23.9145 27.5253 23.7499 27.4287 23.5381C27.332 23.3264 27.3234 23.0849 27.4047 22.8669C27.4861 22.6488 27.6508 22.472 27.8625 22.3753C28.4975 22.0854 29.2216 22.0596 29.8756 22.3036C30.5295 22.5476 31.0598 23.0413 31.3497 23.6763C31.4463 23.888 31.4548 24.1295 31.3733 24.3475C31.2919 24.5654 31.1272 24.7422 30.9155 24.8387C30.7037 24.9353 30.4623 24.9438 30.2443 24.8623C30.0263 24.7809 29.8496 24.6162 29.7531 24.4045" fill="white"/>
<path d="M35.237 28.7818C35.4844 28.2598 35.065 27.708 34.4878 27.708H21.3178C20.7406 27.708 20.3212 28.2607 20.5695 28.7818C21.3178 30.3566 22.6899 31.6172 24.3735 32.3542V32.9718C24.3735 33.2044 24.4659 33.4276 24.6304 33.5921C24.7949 33.7566 25.0181 33.8491 25.2508 33.8491H30.5549C30.7875 33.8491 31.0107 33.7566 31.1752 33.5921C31.3397 33.4276 31.4322 33.2044 31.4322 32.9718V32.3542C33.1148 31.6172 34.4878 30.3566 35.2361 28.7818" fill="white"/>
</g>
<defs>
<filter id="filter0_d_389_311" x="-3.00012" y="-1.43441" width="62.0011" height="67.7983" filterUnits="userSpaceOnUse" color-interpolation-filters="sRGB">
<feFlood flood-opacity="0" result="BackgroundImageFix"/>
<feColorMatrix in="SourceAlpha" type="matrix" values="0 0 0 0 0 0 0 0 0 0 0 0 0 0 0 0 0 0 127 0" result="hardAlpha"/>
<feOffset dy="3.89908"/>
<feGaussianBlur stdDeviation="5"/>
<feComposite in2="hardAlpha" operator="out"/>
<feColorMatrix type="matrix" values="0 0 0 0 0 0 0 0 0 0 0 0 0 0 0 0 0 0 0.25 0"/>
<feBlend mode="normal" in2="BackgroundImageFix" result="effect1_dropShadow_389_311"/>
<feBlend mode="normal" in="SourceGraphic" in2="effect1_dropShadow_389_311" result="shape"/>
</filter>
<clipPath id="clip0_389_311">
<rect width="56" height="56" fill="white"/>
</clipPath>
</defs>
</svg>
