<svg width="85" height="85" viewBox="0 0 85 85" fill="none" xmlns="http://www.w3.org/2000/svg">
<g filter="url(#filter0_d_389_342)">
<path d="M42.12 8.91943C49.5459 8.91948 56.6679 11.8697 61.9188 17.1206C67.0591 22.2604 69.9992 29.1981 70.1171 36.4663C70.2349 43.7346 67.5208 50.7641 62.5497 56.0679L61.9188 56.7212L48.7186 69.9185C47.0438 71.5922 44.7951 72.566 42.4286 72.644C40.0621 72.722 37.754 71.8982 35.9725 70.3384L35.5243 69.9185L22.3212 56.7183C17.0703 51.4674 14.1201 44.3453 14.12 36.9194C14.12 29.4935 17.0703 22.3715 22.3212 17.1206C27.5721 11.8697 34.694 8.91943 42.12 8.91943Z" fill="url(#paint0_linear_389_342)"/>
<path fill-rule="evenodd" clip-rule="evenodd" d="M54.6345 37.1897C54.6344 36.5887 54.5085 35.9943 54.2651 35.4447C54.0216 34.8952 53.6659 34.4027 53.2208 33.9988C53.9434 32.075 53.534 29.7289 51.8114 28.3353C51.0895 27.7509 50.2163 27.3837 49.2937 27.2766C48.3711 27.1695 47.437 27.3269 46.6004 27.7304C46.1829 27.1747 45.6483 26.7176 45.0344 26.3914C43.852 25.7607 42.444 25.6156 41.0964 25.8799C40.2666 26.0417 39.4862 26.3954 38.8175 26.9128C38.1489 27.4302 37.6108 28.097 37.246 28.8597C37.1157 28.7841 36.9825 28.7136 36.8466 28.6485C35.6111 28.0637 34.1298 27.9847 32.6601 28.7246C30.6401 29.7418 29.5999 32.1052 30.0108 34.2559C29.779 34.4638 29.574 34.7028 29.3959 34.9729C28.9649 35.6337 28.7738 36.3966 28.7738 37.1897C28.7738 37.5695 28.9241 37.9338 29.192 38.2031C29.4599 38.4723 29.8235 38.6245 30.2033 38.6264H53.205C53.5848 38.6245 53.9484 38.4723 54.2162 38.2031C54.4841 37.9338 54.6345 37.5695 54.6345 37.1897ZM44.7356 36.0906C44.5772 35.7441 44.2877 35.4746 43.9307 35.3415C43.5737 35.2084 43.1785 35.2226 42.8319 35.3809C42.4852 35.5392 42.0898 35.5533 41.7326 35.4201C41.3755 35.2868 41.0859 35.0172 40.9276 34.6704C40.7693 34.3237 40.7552 33.9283 40.8884 33.5711C41.0216 33.214 41.2913 32.9244 41.638 32.7661C42.6779 32.2913 43.8638 32.2491 44.9348 32.6486C46.0058 33.0482 46.8742 33.8569 47.349 34.8967C47.5071 35.2435 47.521 35.6388 47.3876 35.9958C47.2543 36.3528 46.9845 36.6422 46.6378 36.8004C46.291 36.9585 45.8957 36.9724 45.5387 36.839C45.1817 36.7057 44.8923 36.4359 44.7341 36.0892" fill="white"/>
<path d="M54.1314 43.3918C54.5365 42.537 53.8498 41.6333 52.9044 41.6333H31.3366C30.3912 41.6333 29.7045 42.5384 30.1111 43.3918C31.3366 45.9707 33.5836 48.0353 36.3406 49.2421V50.2535C36.3406 50.6346 36.492 51 36.7614 51.2694C37.0309 51.5389 37.3963 51.6902 37.7773 51.6902H46.4637C46.8447 51.6902 47.2101 51.5389 47.4796 51.2694C47.749 51 47.9004 50.6346 47.9004 50.2535V49.2421C50.656 48.0353 52.9044 45.9707 54.1299 43.3918" fill="white"/>
</g>
<defs>
<filter id="filter0_d_389_342" x="0.119995" y="0.378149" width="84.0009" height="91.7295" filterUnits="userSpaceOnUse" color-interpolation-filters="sRGB">
<feFlood flood-opacity="0" result="BackgroundImageFix"/>
<feColorMatrix in="SourceAlpha" type="matrix" values="0 0 0 0 0 0 0 0 0 0 0 0 0 0 0 0 0 0 127 0" result="hardAlpha"/>
<feOffset dy="5.45872"/>
<feGaussianBlur stdDeviation="7"/>
<feComposite in2="hardAlpha" operator="out"/>
<feColorMatrix type="matrix" values="0 0 0 0 0 0 0 0 0 0 0 0 0 0 0 0 0 0 0.25 0"/>
<feBlend mode="normal" in2="BackgroundImageFix" result="effect1_dropShadow_389_342"/>
<feBlend mode="normal" in="SourceGraphic" in2="effect1_dropShadow_389_342" result="shape"/>
</filter>
<linearGradient id="paint0_linear_389_342" x1="42.1205" y1="8.91943" x2="42.1205" y2="72.6491" gradientUnits="userSpaceOnUse">
<stop stop-color="#3E7CFF"/>
<stop offset="1" stop-color="#FC696A"/>
</linearGradient>
</defs>
</svg>
