<svg width="56" height="56" viewBox="0 0 56 56" fill="none" xmlns="http://www.w3.org/2000/svg">
<g clip-path="url(#clip0_515_8329)">
<g filter="url(#filter0_d_515_8329)">
<path d="M42.8493 10.8173C46.7048 14.6723 48.9098 19.8756 48.9982 25.3269C49.0866 30.7783 47.0514 36.0504 43.323 40.0283L42.8493 40.5183L32.949 50.4163C31.6928 51.6717 30.0064 52.4027 28.2314 52.4612C26.4564 52.5197 24.7255 51.9013 23.3893 50.7313L23.0533 50.4163L13.1507 40.516C9.21239 36.5777 6.99988 31.2362 6.99988 25.6666C6.99988 20.0971 9.21239 14.7556 13.1507 10.8173C17.089 6.87901 22.4304 4.6665 28 4.6665C33.5696 4.6665 38.9111 6.87901 42.8493 10.8173ZM28 18.6666C27.0808 18.6666 26.1705 18.8477 25.3212 19.1995C24.4719 19.5513 23.7003 20.0669 23.0503 20.7169C22.4002 21.3669 21.8846 22.1386 21.5328 22.9878C21.1811 23.8371 21 24.7474 21 25.6666C21 26.5859 21.1811 27.4961 21.5328 28.3454C21.8846 29.1947 22.4002 29.9664 23.0503 30.6164C23.7003 31.2664 24.4719 31.782 25.3212 32.1338C26.1705 32.4856 27.0808 32.6666 28 32.6666C29.8565 32.6666 31.637 31.9291 32.9498 30.6164C34.2625 29.3036 35 27.5231 35 25.6666C35 23.8101 34.2625 22.0296 32.9498 20.7169C31.637 19.4041 29.8565 18.6666 28 18.6666Z" fill="white"/>
</g>
<rect x="12" y="11" width="32.4111" height="32.4111" rx="16.2056" fill="white"/>
<circle cx="36.5972" cy="25.5972" r="5.59719" fill="#FFB5BB"/>
<path d="M27.3526 15.0122C28.5341 14.7804 29.7405 14.9138 30.7324 15.4429H30.7334C31.2433 15.7138 31.6874 16.0936 32.0342 16.5552L32.3555 16.9819L32.8369 16.7505C33.5355 16.4136 34.3156 16.2822 35.086 16.3716C35.8561 16.4611 36.5848 16.7676 37.1875 17.2554H37.1885C38.6036 18.4003 38.9698 20.3594 38.3526 22.0024L38.1973 22.4155L38.5244 22.7124C38.8878 23.0422 39.1781 23.4444 39.377 23.8931C39.5759 24.342 39.6786 24.8279 39.6787 25.3188L39.6651 25.4634C39.6368 25.6053 39.5674 25.7372 39.4639 25.8413C39.3258 25.98 39.1381 26.0581 38.9424 26.0591H16.6895C16.4938 26.0581 16.306 25.98 16.168 25.8413C16.03 25.7026 15.9532 25.5145 15.9531 25.3188C15.9531 24.6577 16.1112 24.0486 16.4473 23.5317C16.5902 23.315 16.7524 23.1259 16.9336 22.9634L17.207 22.7183L17.1387 22.3579C16.7913 20.5395 17.6797 18.5504 19.3555 17.7065C20.588 17.0861 21.8111 17.1548 22.8369 17.6401C22.9521 17.6954 23.0653 17.7557 23.1758 17.8198L23.7842 18.1733L24.0879 17.5376C24.3971 16.8911 24.8532 16.3258 25.4199 15.8872C25.916 15.5033 26.485 15.226 27.0908 15.0708L27.3526 15.0122Z" stroke="black" stroke-width="1.3"/>
<mask id="path-5-inside-1_515_8329" fill="white">
<path d="M39.6635 29.9542C40.0556 29.127 39.391 28.2524 38.4762 28.2524H17.6043C16.6894 28.2524 16.0249 29.1284 16.4183 29.9542C17.6043 32.4499 19.7788 34.4478 22.4469 35.6157V36.5945C22.4469 36.9633 22.5934 37.3169 22.8541 37.5777C23.1148 37.8384 23.4685 37.9849 23.8372 37.9849H32.2433C32.612 37.9849 32.9656 37.8384 33.2264 37.5777C33.4871 37.3169 33.6336 36.9633 33.6336 36.5945V35.6157C36.3003 34.4478 38.4762 32.4499 39.6622 29.9542"/>
</mask>
<path d="M16.4183 29.9542L17.5925 29.3963L17.5919 29.3951L16.4183 29.9542ZM22.4469 35.6157H23.7469V34.7657L22.9682 34.4248L22.4469 35.6157ZM22.4469 36.5945H23.7469H22.4469ZM33.6336 35.6157L33.1121 34.4249L32.3336 34.7659V35.6157H33.6336ZM39.6635 29.9542L40.8383 30.511C41.7197 28.6513 40.1503 26.9524 38.4762 26.9524V28.2524V29.5524C38.5139 29.5524 38.5164 29.5686 38.5044 29.5519C38.4972 29.5418 38.4838 29.5176 38.4796 29.4792C38.4776 29.4603 38.4783 29.4417 38.4811 29.4252C38.4839 29.4086 38.488 29.3991 38.4888 29.3975L39.6635 29.9542ZM38.4762 28.2524V26.9524H17.6043V28.2524V29.5524H38.4762V28.2524ZM17.6043 28.2524V26.9524C15.9307 26.9524 14.3587 28.6536 15.2447 30.5134L16.4183 29.9542L17.5919 29.3951C17.5929 29.397 17.5971 29.4069 17.6 29.4238C17.6029 29.4407 17.6036 29.4595 17.6016 29.4786C17.5974 29.5174 17.5839 29.5417 17.5767 29.5518C17.5648 29.5684 17.5672 29.5524 17.6043 29.5524V28.2524ZM16.4183 29.9542L15.2442 30.5122C16.579 33.3211 19.0034 35.5275 21.9256 36.8066L22.4469 35.6157L22.9682 34.4248C20.5542 33.3682 18.6296 31.5787 17.5925 29.3963L16.4183 29.9542ZM22.4469 35.6157H21.1469V36.5945H22.4469H23.7469V35.6157H22.4469ZM22.4469 36.5945H21.1469C21.1469 37.308 21.4303 37.9924 21.9349 38.4969L22.8541 37.5777L23.7733 36.6584C23.7564 36.6415 23.7469 36.6185 23.7469 36.5945H22.4469ZM22.8541 37.5777L21.9349 38.4969C22.4394 39.0014 23.1237 39.2849 23.8372 39.2849V37.9849V36.6849C23.8133 36.6849 23.7903 36.6754 23.7733 36.6584L22.8541 37.5777ZM23.8372 37.9849V39.2849H32.2433V37.9849V36.6849H23.8372V37.9849ZM32.2433 37.9849V39.2849C32.9568 39.2849 33.6411 39.0014 34.1456 38.4969L33.2264 37.5777L32.3071 36.6584C32.2902 36.6754 32.2672 36.6849 32.2433 36.6849V37.9849ZM33.2264 37.5777L34.1456 38.4969C34.6502 37.9924 34.9336 37.3081 34.9336 36.5945H33.6336H32.3336C32.3336 36.6185 32.3241 36.6415 32.3071 36.6584L33.2264 37.5777ZM33.6336 36.5945H34.9336V35.6157H33.6336H32.3336V36.5945H33.6336ZM33.6336 35.6157L34.1551 36.8065C37.0755 35.5275 39.5014 33.3213 40.8363 30.5122L39.6622 29.9542L38.488 29.3963C37.451 31.5785 35.5251 33.3681 33.1121 34.4249L33.6336 35.6157Z" fill="black" mask="url(#path-5-inside-1_515_8329)"/>
</g>
<defs>
<filter id="filter0_d_515_8329" x="-3.00012" y="-1.43441" width="62.0011" height="67.7983" filterUnits="userSpaceOnUse" color-interpolation-filters="sRGB">
<feFlood flood-opacity="0" result="BackgroundImageFix"/>
<feColorMatrix in="SourceAlpha" type="matrix" values="0 0 0 0 0 0 0 0 0 0 0 0 0 0 0 0 0 0 127 0" result="hardAlpha"/>
<feOffset dy="3.89908"/>
<feGaussianBlur stdDeviation="5"/>
<feComposite in2="hardAlpha" operator="out"/>
<feColorMatrix type="matrix" values="0 0 0 0 0 0 0 0 0 0 0 0 0 0 0 0 0 0 0.25 0"/>
<feBlend mode="normal" in2="BackgroundImageFix" result="effect1_dropShadow_515_8329"/>
<feBlend mode="normal" in="SourceGraphic" in2="effect1_dropShadow_515_8329" result="shape"/>
</filter>
<clipPath id="clip0_515_8329">
<rect width="56" height="56" fill="white"/>
</clipPath>
</defs>
</svg>
