<svg width="16" height="17" viewBox="0 0 16 17" fill="none" xmlns="http://www.w3.org/2000/svg">
<path d="M4.07954 11.6972C3.67861 11.756 3.01861 11.8653 2.57954 11.3672C2.14048 10.8691 1.76079 9.66628 1.59392 8.59128C1.34767 7.0069 1.59204 5.67159 2.28142 4.83159C2.68767 4.3369 3.22079 4.05034 3.82329 4.00472C4.33923 3.96503 5.11017 4.1669 5.85454 5.3544C6.32079 6.09847 6.67548 7.0869 6.82767 8.06597C7.01142 9.24784 7.19048 10.5091 6.56392 10.9613C6.21048 11.2166 5.95673 11.305 5.35704 11.4478C4.86392 11.565 4.48079 11.6382 4.07954 11.6972ZM3.36642 12.7138L6.76923 12.0119C7.05673 11.9525 7.28736 12.1107 7.39423 12.5844C7.74486 14.1394 7.24236 16 5.66861 16C4.17829 16 3.18517 14.3013 3.02298 13.3882C2.94892 12.9741 3.05454 12.7778 3.36642 12.7138ZM10.6436 8.44815C10.0439 8.30597 9.79017 8.2169 9.43673 7.96159C8.81017 7.5094 8.98923 6.24815 9.17298 5.06628C9.32517 4.08722 9.67986 3.09753 10.1461 2.35472C10.8899 1.16722 11.6608 0.965342 12.1774 1.00503C12.7792 1.05097 13.3127 1.3369 13.7189 1.83159C14.4089 2.67159 14.6533 4.0069 14.4064 5.59128C14.2392 6.66628 13.8608 7.86503 13.4192 8.36722C12.9777 8.8694 12.3214 8.75597 11.9192 8.69722C11.517 8.63847 11.1364 8.56503 10.6436 8.44815ZM12.6339 9.71378L9.23111 9.0119C8.94361 8.95253 8.71298 9.11065 8.60611 9.5844C8.25579 11.1394 8.75829 13 10.332 13C11.8224 13 12.8155 11.3013 12.9777 10.3882C13.0514 9.97409 12.9458 9.77784 12.6339 9.71378Z" fill="white"/>
</svg>
