<svg width="17" height="16" viewBox="0 0 17 16" fill="none" xmlns="http://www.w3.org/2000/svg">
<path d="M8.63184 8.66602C7.74778 8.66602 6.89993 8.31483 6.27481 7.6897C5.64969 7.06458 5.2985 6.21674 5.2985 5.33268H6.63184C6.63184 5.86312 6.84255 6.37182 7.21762 6.7469C7.5927 7.12197 8.1014 7.33268 8.63184 7.33268C9.16227 7.33268 9.67098 7.12197 10.0461 6.7469C10.4211 6.37182 10.6318 5.86312 10.6318 5.33268H11.9652C11.9652 6.21674 11.614 7.06458 10.9889 7.6897C10.3637 8.31483 9.51589 8.66602 8.63184 8.66602ZM8.63184 1.99935C9.16227 1.99935 9.67098 2.21006 10.0461 2.58514C10.4211 2.96021 10.6318 3.46892 10.6318 3.99935H6.63184C6.63184 3.46892 6.84255 2.96021 7.21762 2.58514C7.5927 2.21006 8.1014 1.99935 8.63184 1.99935ZM13.2985 3.99935H11.9652C11.9652 3.56161 11.879 3.12816 11.7114 2.72374C11.5439 2.31932 11.2984 1.95185 10.9889 1.64233C10.6793 1.3328 10.3119 1.08727 9.90745 0.919751C9.50303 0.752235 9.06958 0.666016 8.63184 0.666016C7.74778 0.666016 6.89993 1.01721 6.27481 1.64233C5.64969 2.26745 5.2985 3.11529 5.2985 3.99935H3.96517C3.22517 3.99935 2.63184 4.59268 2.63184 5.33268V13.3327C2.63184 13.6863 2.77231 14.0254 3.02236 14.2755C3.27241 14.5255 3.61155 14.666 3.96517 14.666H13.2985C13.6521 14.666 13.9913 14.5255 14.2413 14.2755C14.4914 14.0254 14.6318 13.6863 14.6318 13.3327V5.33268C14.6318 4.97906 14.4914 4.63992 14.2413 4.38987C13.9913 4.13982 13.6521 3.99935 13.2985 3.99935Z" />
</svg>
