<svg width="17" height="16" viewBox="0 0 17 16" fill="none" xmlns="http://www.w3.org/2000/svg">
<path d="M8.12 8.66602C7.23594 8.66602 6.38809 8.31483 5.76297 7.6897C5.13785 7.06458 4.78666 6.21674 4.78666 5.33268H6.12C6.12 5.86312 6.33071 6.37182 6.70578 6.7469C7.08085 7.12197 7.58956 7.33268 8.12 7.33268C8.65043 7.33268 9.15914 7.12197 9.53421 6.7469C9.90928 6.37182 10.12 5.86312 10.12 5.33268H11.4533C11.4533 6.21674 11.1021 7.06458 10.477 7.6897C9.8519 8.31483 9.00405 8.66602 8.12 8.66602ZM8.12 1.99935C8.65043 1.99935 9.15914 2.21006 9.53421 2.58514C9.90928 2.96021 10.12 3.46892 10.12 3.99935H6.12C6.12 3.46892 6.33071 2.96021 6.70578 2.58514C7.08085 2.21006 7.58956 1.99935 8.12 1.99935ZM12.7867 3.99935H11.4533C11.4533 3.56161 11.3671 3.12816 11.1996 2.72374C11.0321 2.31932 10.7865 1.95185 10.477 1.64233C10.1675 1.3328 9.80002 1.08727 9.39561 0.919751C8.99119 0.752235 8.55773 0.666016 8.12 0.666016C7.23594 0.666016 6.38809 1.01721 5.76297 1.64233C5.13785 2.26745 4.78666 3.11529 4.78666 3.99935H3.45333C2.71333 3.99935 2.12 4.59268 2.12 5.33268V13.3327C2.12 13.6863 2.26047 14.0254 2.51052 14.2755C2.76057 14.5255 3.09971 14.666 3.45333 14.666H12.7867C13.1403 14.666 13.4794 14.5255 13.7295 14.2755C13.9795 14.0254 14.12 13.6863 14.12 13.3327V5.33268C14.12 4.97906 13.9795 4.63992 13.7295 4.38987C13.4794 4.13982 13.1403 3.99935 12.7867 3.99935Z" fill="#2A2A2E"/>
</svg>
