<svg width="22" height="22" viewBox="0 0 22 22" fill="none" xmlns="http://www.w3.org/2000/svg">
<path d="M18 10.4927H18.5C19.435 10.4927 19.902 10.4927 20.25 10.6937C20.478 10.8253 20.6674 11.0147 20.799 11.2427C21 11.5907 21 12.0577 21 12.9927C21 13.9277 21 14.3947 20.799 14.7427C20.6674 14.9707 20.478 15.16 20.25 15.2917C19.902 15.4927 19.435 15.4927 18.5 15.4927H18M4 10.4927H3.5C2.565 10.4927 2.098 10.4927 1.75 10.6937C1.52199 10.8253 1.33265 11.0147 1.201 11.2427C1 11.5907 1 12.0577 1 12.9927C1 13.9277 1 14.3947 1.201 14.7427C1.33265 14.9707 1.52199 15.16 1.75 15.2917C2.098 15.4927 2.565 15.4927 3.5 15.4927H4M11 3.99268C11.3978 3.99268 11.7794 3.83464 12.0607 3.55334C12.342 3.27203 12.5 2.8905 12.5 2.49268C12.5 2.09485 12.342 1.71332 12.0607 1.43202C11.7794 1.15071 11.3978 0.992676 11 0.992676C10.6022 0.992676 10.2206 1.15071 9.93934 1.43202C9.65804 1.71332 9.5 2.09485 9.5 2.49268C9.5 2.8905 9.65804 3.27203 9.93934 3.55334C10.2206 3.83464 10.6022 3.99268 11 3.99268ZM11 3.99268V6.99268M8 10.9927V11.9927M14 10.9927V11.9927M10 6.99268H12C14.828 6.99268 16.243 6.99268 17.121 7.87168C18 8.74968 18 10.1647 18 12.9927C18 15.8207 18 17.2357 17.121 18.1137C16.243 18.9927 14.828 18.9927 12 18.9927H11C11 18.9927 10.5 20.9927 7 20.9927C7 20.9927 8 19.9837 8 18.9757C6.447 18.9287 5.52 18.7557 4.879 18.1137C4 17.2357 4 15.8207 4 12.9927C4 10.1647 4 8.74968 4.879 7.87168C5.757 6.99268 7.172 6.99268 10 6.99268Z" stroke="#2A2A2E" stroke-width="1.5" stroke-linecap="round" stroke-linejoin="round"/>
</svg>
