<svg width="16" height="16" viewBox="0 0 16 16" fill="none" xmlns="http://www.w3.org/2000/svg">
<g clip-path="url(#clip0_333_544)">
<path d="M8.29981 14.9316C12.1831 14.9316 15.3311 11.7836 15.3311 7.90039C15.3311 4.01714 12.1831 0.869141 8.29981 0.869141C4.41655 0.869141 1.26855 4.01714 1.26855 7.90039C1.26855 11.7836 4.41655 14.9316 8.29981 14.9316Z" fill="#F5F5F5"/>
<path d="M6.2839 8.29913C6.94015 8.74445 7.85421 8.55695 8.29953 7.9007C8.74484 7.24445 9.63546 7.05694 10.3151 7.50226C10.948 7.92413 11.1355 8.74444 10.7839 9.37726C11.5573 8.06476 11.2058 6.35382 9.89327 5.48663C8.55734 4.59601 6.75265 4.94757 5.86203 6.28351C5.83859 6.33038 5.81515 6.37726 5.79171 6.4007C5.46359 7.08038 5.67453 7.87726 6.2839 8.29913Z" fill="#ED4C5C"/>
<path d="M10.3155 7.50195C9.65929 7.05664 8.74522 7.24414 8.29991 7.90039C7.8546 8.55664 6.96397 8.74414 6.28429 8.29883C5.65147 7.87695 5.46397 7.05664 5.81554 6.42383C5.01866 7.73633 5.39366 9.44727 6.70616 10.3145C8.0421 11.2051 9.84679 10.8535 10.7374 9.51758C10.7608 9.4707 10.7843 9.42383 10.8077 9.40039C11.1358 8.7207 10.9249 7.92383 10.3155 7.50195Z" fill="#428BC1"/>
<path d="M2.62793 5.86084L4.24512 3.44678L4.08105 3.32959L3.91699 3.23584L2.2998 5.6499L2.46387 5.74365L2.62793 5.86084ZM3.07324 6.16553L3.2373 6.25928L4.83105 3.84521L4.69043 3.75146L4.52637 3.63428L2.90918 6.04834L3.07324 6.16553ZM5.1123 4.03271L3.51855 6.44678L3.68262 6.56396L3.84668 6.65771L5.44043 4.24365L5.27637 4.1499L5.1123 4.03271ZM12.167 10.3608L12.3311 10.478L13.0811 9.35303L12.917 9.23584L12.7529 9.14209L12.0029 10.2671L12.167 10.3608ZM13.9717 9.93896L13.2217 11.064L13.3857 11.1812L13.5498 11.2749L14.2998 10.1499L14.1357 10.0562L13.9717 9.93896ZM12.9404 10.8765L13.6904 9.75147L13.5264 9.63428L13.3623 9.54053L12.6123 10.6655L12.7764 10.7593L12.9404 10.8765ZM12.0732 10.5249L11.9092 10.4312L11.1592 11.5562L11.3232 11.6499L11.4873 11.7671L12.2373 10.6421L12.0732 10.5249ZM12.6592 10.9233L12.5186 10.8296L11.7686 11.9546L11.9092 12.0483L12.0732 12.1655L12.8232 11.0405L12.6592 10.9233ZM13.1045 11.228L12.3545 12.353L12.5186 12.4702L12.6826 12.564L13.4326 11.439L13.2686 11.3218L13.1045 11.228ZM2.46387 10.0562L2.2998 10.1499L3.91699 12.564L4.08105 12.4702L4.24512 12.353L2.62793 9.93896L2.46387 10.0562ZM3.94043 10.9233L3.77637 11.0405L4.52637 12.1655L4.69043 12.0483L4.83105 11.9546L4.08105 10.8296L3.94043 10.9233ZM3.68262 9.23584L3.51855 9.35303L5.1123 11.7671L5.27637 11.6499L5.44043 11.5562L3.84668 9.14209L3.68262 9.23584ZM2.90918 9.75147L3.65918 10.8765L3.82324 10.7593L3.9873 10.6655L3.2373 9.54053L3.07324 9.63428L2.90918 9.75147ZM13.2686 4.47803L13.4326 4.36084L12.6826 3.23584L12.5186 3.32959L12.3545 3.44678L13.1045 4.57178L13.2686 4.47803ZM12.0732 5.2749L12.2373 5.15771L11.4873 4.03271L11.3232 4.1499L11.1592 4.24365L11.9092 5.36865L12.0732 5.2749ZM13.2217 4.73584L13.9717 5.86084L14.1357 5.74365L14.2998 5.6499L13.5498 4.5249L13.3857 4.61865L13.2217 4.73584ZM13.5264 6.16553L13.6904 6.04834L12.0732 3.63428L11.9092 3.75146L11.7686 3.84521L13.3623 6.25928L13.5264 6.16553ZM12.917 6.56396L13.0811 6.44678L12.3311 5.32178L12.167 5.43896L12.0029 5.53271L12.7529 6.65771L12.917 6.56396Z" fill="#3E4347"/>
</g>
<defs>
<clipPath id="clip0_333_544">
<rect width="15" height="15" fill="white" transform="translate(0.799805 0.399902)"/>
</clipPath>
</defs>
</svg>
