<svg width="15" height="15" viewBox="0 0 15 15" fill="none" xmlns="http://www.w3.org/2000/svg">
<path d="M7.3 13.6C8.12733 13.6 8.94655 13.437 9.71091 13.1204C10.4753 12.8038 11.1698 12.3398 11.7548 11.7548C12.3398 11.1698 12.8038 10.4753 13.1204 9.71091C13.437 8.94655 13.6 8.12733 13.6 7.3C13.6 6.47267 13.437 5.65345 13.1204 4.88909C12.8038 4.12474 12.3398 3.43024 11.7548 2.84523C11.1698 2.26022 10.4753 1.79616 9.71091 1.47956C8.94655 1.16295 8.12733 1 7.3 1M7.3 13.6C6.47267 13.6 5.65345 13.437 4.88909 13.1204C4.12474 12.8038 3.43024 12.3398 2.84523 11.7548C2.26022 11.1698 1.79616 10.4753 1.47956 9.71091C1.16295 8.94655 1 8.12733 1 7.3C1 6.47267 1.16295 5.65345 1.47956 4.88909C1.79616 4.12474 2.26022 3.43024 2.84523 2.84523C3.43024 2.26022 4.12474 1.79616 4.88909 1.47956C5.65345 1.16295 6.47267 1 7.3 1M7.3 13.6C9.2327 13.6 10.0587 9.9859 10.0587 7.3C10.0587 4.6141 9.2327 1 7.3 1M7.3 13.6C5.3673 13.6 4.5413 9.9859 4.5413 7.3C4.5413 4.6141 5.3673 1 7.3 1M1.35 5.2H13.25M1.35 9.4H13.25" stroke="#2A2A2E" stroke-width="1.2" stroke-linecap="round" stroke-linejoin="round"/>
</svg>
