<svg width="16" height="16" viewBox="0 0 16 16" fill="none" xmlns="http://www.w3.org/2000/svg">
<path d="M10.8574 7.42868C10.8574 8.18644 10.5563 8.91316 10.0205 9.44898C9.4847 9.9848 8.75797 10.2858 8.00021 10.2858C7.24245 10.2858 6.51572 9.9848 5.9799 9.44898C5.44409 8.91316 5.14307 8.18644 5.14307 7.42868V3.42868C5.14307 2.67091 5.44409 1.94419 5.9799 1.40837C6.51572 0.872553 7.24245 0.571533 8.00021 0.571533C8.75797 0.571533 9.4847 0.872553 10.0205 1.40837C10.5563 1.94419 10.8574 2.67091 10.8574 3.42868V7.42868Z" stroke="#AD0002" stroke-linecap="round" stroke-linejoin="round"/>
<path d="M13.7142 8C13.7157 8.67579 13.5837 9.34523 13.3258 9.96987C13.0679 10.5945 12.6891 11.1621 12.2113 11.6399C11.7334 12.1178 11.1659 12.4965 10.5412 12.7544C9.9166 13.0124 9.24716 13.1444 8.57137 13.1429H7.42851C6.75272 13.1444 6.08329 13.0124 5.45865 12.7544C4.83401 12.4965 4.26646 12.1178 3.78861 11.6399C3.31075 11.1621 2.93198 10.5945 2.67407 9.96987C2.41615 9.34523 2.28415 8.67579 2.28566 8M7.99994 13.1429V15.4286" stroke="#AD0002" stroke-linecap="round" stroke-linejoin="round"/>
</svg>
