<svg width="19" height="20" viewBox="0 0 19 20" fill="none" xmlns="http://www.w3.org/2000/svg">
<path d="M9.23068 2.84009C10.9255 2.84009 12.551 3.51337 13.7494 4.71181C14.9479 5.91026 15.6212 7.5357 15.6212 9.23056C15.6212 11.4133 14.4311 13.1998 13.1772 14.4814C12.5507 15.1148 11.8671 15.6891 11.135 16.1969L10.8326 16.4028L10.6905 16.4972L10.4229 16.6676L10.1843 16.8132L9.8889 16.985C9.6884 17.0995 9.46154 17.1597 9.23068 17.1597C8.99982 17.1597 8.77296 17.0995 8.57246 16.985L8.27708 16.8132L7.90785 16.586L7.77152 16.4972L7.4804 16.3034C6.6907 15.7691 5.95514 15.1589 5.28421 14.4814C4.03026 13.199 2.84021 11.4133 2.84021 9.23056C2.84021 7.5357 3.51349 5.91026 4.71194 4.71181C5.91038 3.51337 7.53582 2.84009 9.23068 2.84009ZM9.23068 7.1004C8.95094 7.1004 8.67395 7.1555 8.4155 7.26255C8.15706 7.3696 7.92224 7.52651 7.72443 7.72431C7.52663 7.92211 7.36972 8.15694 7.26267 8.41538C7.15562 8.67382 7.10052 8.95082 7.10052 9.23056C7.10052 9.51029 7.15562 9.78729 7.26267 10.0457C7.36972 10.3042 7.52663 10.539 7.72443 10.7368C7.92224 10.9346 8.15706 11.0915 8.4155 11.1986C8.67395 11.3056 8.95094 11.3607 9.23068 11.3607C9.79563 11.3607 10.3374 11.1363 10.7369 10.7368C11.1364 10.3373 11.3608 9.79551 11.3608 9.23056C11.3608 8.66561 11.1364 8.12379 10.7369 7.72431C10.3374 7.32483 9.79563 7.1004 9.23068 7.1004Z" fill="#71717A"/>
</svg>
