<svg width="41" height="40" viewBox="0 0 41 40" fill="none" xmlns="http://www.w3.org/2000/svg">
<path d="M18.9298 23.0133C20.1987 23.0133 21.2798 22.5666 22.1732 21.6733C23.0665 20.78 23.5132 19.6988 23.5132 18.43C23.5132 17.1611 23.0665 16.0794 22.1732 15.185C21.2798 14.2927 20.1987 13.8466 18.9298 13.8466C17.6609 13.8466 16.5798 14.2927 15.6865 15.185C14.7932 16.0772 14.3465 17.1588 14.3465 18.43C14.3465 19.7011 14.7926 20.7822 15.6848 21.6733C16.5771 22.5644 17.6587 23.0111 18.9298 23.0133ZM27.3232 28.0133L22.7232 23.38C22.1676 23.8066 21.5726 24.13 20.9382 24.35C20.3015 24.57 19.6321 24.68 18.9298 24.68C17.1921 24.68 15.7159 24.0727 14.5015 22.8583C13.2871 21.6438 12.6798 20.1677 12.6798 18.43C12.6798 16.6922 13.2865 15.2155 14.4998 14C15.7132 12.7844 17.1893 12.1772 18.9282 12.1783C20.6671 12.1794 22.1432 12.7866 23.3565 14C24.5698 15.2133 25.1776 16.6894 25.1798 18.4283C25.1798 19.1316 25.0682 19.8011 24.8448 20.4366C24.6215 21.0722 24.2971 21.6677 23.8715 22.2233L28.5132 26.8316L27.3232 28.0133ZM9.85984 33.3333C9.09206 33.3333 8.4515 33.0766 7.93817 32.5633C7.42484 32.05 7.16762 31.4088 7.1665 30.64V25H8.83317V30.6416C8.83317 30.8972 8.93984 31.1322 9.15317 31.3466C9.3665 31.5611 9.6015 31.6677 9.85817 31.6666H15.4998V33.3333H9.85984ZM25.4998 33.3333V31.6666H31.1415C31.3971 31.6666 31.6321 31.56 31.8465 31.3466C32.0609 31.1333 32.1676 30.8977 32.1665 30.64V25H33.8332V30.6416C33.8332 31.4083 33.5765 32.0483 33.0632 32.5616C32.5498 33.075 31.9087 33.3322 31.1398 33.3333H25.4998ZM7.1665 15V9.35996C7.1665 8.59218 7.42373 7.95163 7.93817 7.43829C8.45261 6.92496 9.09317 6.66774 9.85984 6.66663H15.4998V8.33329H9.85984C9.60317 8.33329 9.36761 8.43996 9.15317 8.65329C8.93873 8.86663 8.83206 9.10218 8.83317 9.35996V15H7.1665ZM32.1665 15V9.35996C32.1665 9.10329 32.0598 8.86774 31.8465 8.65329C31.6332 8.43885 31.3976 8.33218 31.1398 8.33329H25.4998V6.66663H31.1415C31.9082 6.66663 32.5482 6.92385 33.0615 7.43829C33.5748 7.95274 33.8321 8.59329 33.8332 9.35996V15H32.1665Z" fill="white"/>
</svg>
