<svg width="56" height="56" viewBox="0 0 56 56" fill="none" xmlns="http://www.w3.org/2000/svg">
<g clip-path="url(#clip0_515_8570)">
<g filter="url(#filter0_d_515_8570)">
<path d="M42.8493 10.8173C46.7048 14.6723 48.9098 19.8756 48.9982 25.3269C49.0866 30.7783 47.0514 36.0504 43.323 40.0283L42.8493 40.5183L32.949 50.4163C31.6928 51.6717 30.0064 52.4027 28.2314 52.4612C26.4564 52.5197 24.7255 51.9013 23.3893 50.7313L23.0533 50.4163L13.1507 40.516C9.21239 36.5777 6.99988 31.2362 6.99988 25.6666C6.99988 20.0971 9.21239 14.7556 13.1507 10.8173C17.089 6.87901 22.4304 4.6665 28 4.6665C33.5696 4.6665 38.9111 6.87901 42.8493 10.8173ZM28 18.6666C27.0808 18.6666 26.1705 18.8477 25.3212 19.1995C24.4719 19.5513 23.7003 20.0669 23.0503 20.7169C22.4002 21.3669 21.8846 22.1386 21.5328 22.9878C21.1811 23.8371 21 24.7474 21 25.6666C21 26.5859 21.1811 27.4961 21.5328 28.3454C21.8846 29.1947 22.4002 29.9664 23.0503 30.6164C23.7003 31.2664 24.4719 31.782 25.3212 32.1338C26.1705 32.4856 27.0808 32.6666 28 32.6666C29.8565 32.6666 31.637 31.9291 32.9498 30.6164C34.2625 29.3036 35 27.5231 35 25.6666C35 23.8101 34.2625 22.0296 32.9498 20.7169C31.637 19.4041 29.8565 18.6666 28 18.6666Z" fill="white"/>
</g>
<rect x="11.6973" y="9.74756" width="32.4111" height="32.4111" rx="16.2056" fill="white"/>
<circle cx="34.0036" cy="26.6832" r="6.04358" fill="#FFB5BB"/>
<path d="M21.3856 36.088C20.7968 36.088 20.3055 35.8911 19.9118 35.4974C19.5181 35.1037 19.3209 34.6125 19.32 34.0236V20.2573C19.32 19.6693 19.5173 19.1784 19.9118 18.7848C20.3064 18.3911 20.7976 18.1938 21.3856 18.1929H23.7938V17.5538C23.7938 16.3114 24.2288 15.2552 25.0988 14.3851C25.9689 13.5151 27.0251 13.0801 28.2675 13.0801C29.5099 13.0801 30.5662 13.5151 31.4362 14.3851C32.3063 15.2552 32.7413 16.3114 32.7413 17.5538V18.1929H35.1507C35.7387 18.1929 36.2295 18.3902 36.6232 18.7848C37.0169 19.1793 37.2142 19.6706 37.215 20.2585V34.0236C37.215 34.6116 37.0178 35.1029 36.6232 35.4974C36.2287 35.892 35.7378 36.0888 35.1507 36.088H21.3856ZM21.3856 34.8097H35.1507C35.3467 34.8097 35.5269 34.7279 35.6914 34.5643C35.8559 34.4007 35.9377 34.2201 35.9368 34.0224V20.2585C35.9368 20.0617 35.855 19.881 35.6914 19.7166C35.5278 19.5521 35.3471 19.4703 35.1494 19.4712H32.7413V22.6667C32.7413 22.8491 32.6803 23.0012 32.5585 23.123C32.4366 23.2449 32.2845 23.3058 32.1022 23.3058C31.9198 23.3058 31.7677 23.2449 31.6458 23.123C31.524 23.0012 31.4631 22.8491 31.4631 22.6667V19.4712H25.072V22.6667C25.072 22.8491 25.0111 23.0012 24.8892 23.123C24.7673 23.2449 24.6152 23.3058 24.4329 23.3058C24.2505 23.3058 24.0984 23.2449 23.9765 23.123C23.8547 23.0012 23.7938 22.8491 23.7938 22.6667V19.4712H21.3856C21.1888 19.4712 21.0081 19.553 20.8436 19.7166C20.6792 19.8802 20.5974 20.0608 20.5982 20.2585V34.0236C20.5982 34.2196 20.68 34.3999 20.8436 34.5643C21.0073 34.7288 21.1875 34.8106 21.3843 34.8097M25.072 18.1929H31.4631V17.5538C31.4631 16.654 31.1554 15.8964 30.5402 15.2812C29.9249 14.6659 29.1674 14.3583 28.2675 14.3583C27.3677 14.3583 26.6101 14.6659 25.9949 15.2812C25.3796 15.8964 25.072 16.654 25.072 17.5538V18.1929Z" fill="black"/>
</g>
<defs>
<filter id="filter0_d_515_8570" x="-3.00012" y="-1.43441" width="62.0011" height="67.7983" filterUnits="userSpaceOnUse" color-interpolation-filters="sRGB">
<feFlood flood-opacity="0" result="BackgroundImageFix"/>
<feColorMatrix in="SourceAlpha" type="matrix" values="0 0 0 0 0 0 0 0 0 0 0 0 0 0 0 0 0 0 127 0" result="hardAlpha"/>
<feOffset dy="3.89908"/>
<feGaussianBlur stdDeviation="5"/>
<feComposite in2="hardAlpha" operator="out"/>
<feColorMatrix type="matrix" values="0 0 0 0 0 0 0 0 0 0 0 0 0 0 0 0 0 0 0.25 0"/>
<feBlend mode="normal" in2="BackgroundImageFix" result="effect1_dropShadow_515_8570"/>
<feBlend mode="normal" in="SourceGraphic" in2="effect1_dropShadow_515_8570" result="shape"/>
</filter>
<clipPath id="clip0_515_8570">
<rect width="56" height="56" fill="white"/>
</clipPath>
</defs>
</svg>
