<svg width="85" height="85" viewBox="0 0 85 85" fill="none" xmlns="http://www.w3.org/2000/svg">
<g filter="url(#filter0_d_389_401)">
<path d="M42.12 8.91943C49.5459 8.91948 56.6679 11.8697 61.9188 17.1206C67.0591 22.2604 69.9992 29.1981 70.1171 36.4663C70.2349 43.7346 67.5208 50.7641 62.5497 56.0679L61.9188 56.7212L48.7186 69.9185C47.0438 71.5922 44.7951 72.566 42.4286 72.644C40.0621 72.722 37.754 71.8982 35.9725 70.3384L35.5243 69.9185L22.3212 56.7183C17.0703 51.4674 14.1201 44.3453 14.12 36.9194C14.12 29.4935 17.0703 22.3715 22.3212 17.1206C27.5721 11.8697 34.694 8.91943 42.12 8.91943Z" fill="#FC696A"/>
<path d="M42.1205 36.9153C40.55 36.9153 39.0438 36.2914 37.9332 35.1808C36.8227 34.0703 36.1988 32.5641 36.1988 30.9935H38.5675C38.5675 31.9359 38.9418 32.8396 39.6082 33.5059C40.2745 34.1723 41.1782 34.5466 42.1205 34.5466C43.0629 34.5466 43.9666 34.1723 44.6329 33.5059C45.2992 32.8396 45.6736 31.9359 45.6736 30.9935H48.0423C48.0423 32.5641 47.4184 34.0703 46.3078 35.1808C45.1973 36.2914 43.6911 36.9153 42.1205 36.9153ZM42.1205 25.0718C43.0629 25.0718 43.9666 25.4462 44.6329 26.1125C45.2992 26.7788 45.6736 27.6825 45.6736 28.6249H38.5675C38.5675 27.6825 38.9418 26.7788 39.6082 26.1125C40.2745 25.4462 41.1782 25.0718 42.1205 25.0718ZM50.411 28.6249H48.0423C48.0423 27.8472 47.8891 27.0772 47.5915 26.3587C47.2939 25.6403 46.8577 24.9874 46.3078 24.4376C45.758 23.8877 45.1052 23.4515 44.3867 23.1539C43.6682 22.8563 42.8982 22.7031 42.1205 22.7031C40.55 22.7031 39.0438 23.327 37.9332 24.4376C36.8227 25.5481 36.1988 27.0543 36.1988 28.6249H33.8301C32.5155 28.6249 31.4614 29.6789 31.4614 30.9935V45.2057C31.4614 45.8339 31.711 46.4364 32.1552 46.8806C32.5994 47.3248 33.2019 47.5744 33.8301 47.5744H50.411C51.0392 47.5744 51.6417 47.3248 52.0859 46.8806C52.5301 46.4364 52.7797 45.8339 52.7797 45.2057V30.9935C52.7797 30.3653 52.5301 29.7628 52.0859 29.3186C51.6417 28.8744 51.0392 28.6249 50.411 28.6249Z" fill="white"/>
</g>
<defs>
<filter id="filter0_d_389_401" x="0.119995" y="0.378149" width="84.0009" height="91.7295" filterUnits="userSpaceOnUse" color-interpolation-filters="sRGB">
<feFlood flood-opacity="0" result="BackgroundImageFix"/>
<feColorMatrix in="SourceAlpha" type="matrix" values="0 0 0 0 0 0 0 0 0 0 0 0 0 0 0 0 0 0 127 0" result="hardAlpha"/>
<feOffset dy="5.45872"/>
<feGaussianBlur stdDeviation="7"/>
<feComposite in2="hardAlpha" operator="out"/>
<feColorMatrix type="matrix" values="0 0 0 0 0 0 0 0 0 0 0 0 0 0 0 0 0 0 0.25 0"/>
<feBlend mode="normal" in2="BackgroundImageFix" result="effect1_dropShadow_389_401"/>
<feBlend mode="normal" in="SourceGraphic" in2="effect1_dropShadow_389_401" result="shape"/>
</filter>
</defs>
</svg>
