<svg width="56" height="56" viewBox="0 0 56 56" fill="none" xmlns="http://www.w3.org/2000/svg">
<g clip-path="url(#clip0_389_409)">
<g filter="url(#filter0_d_389_409)">
<path d="M42.8493 10.8173C46.7048 14.6723 48.9098 19.8756 48.9982 25.3269C49.0866 30.7783 47.0514 36.0504 43.323 40.0283L42.8493 40.5183L32.949 50.4163C31.6928 51.6717 30.0064 52.4027 28.2314 52.4612C26.4564 52.5197 24.7255 51.9013 23.3893 50.7313L23.0533 50.4163L13.1507 40.516C9.21239 36.5777 6.99988 31.2362 6.99988 25.6666C6.99988 20.0971 9.21239 14.7556 13.1507 10.8173C17.089 6.87901 22.4304 4.6665 28 4.6665C33.5696 4.6665 38.9111 6.87901 42.8493 10.8173ZM28 18.6666C27.0808 18.6666 26.1705 18.8477 25.3212 19.1995C24.4719 19.5513 23.7003 20.0669 23.0503 20.7169C22.4002 21.3669 21.8846 22.1386 21.5328 22.9878C21.1811 23.8371 21 24.7474 21 25.6666C21 26.5859 21.1811 27.4961 21.5328 28.3454C21.8846 29.1947 22.4002 29.9664 23.0503 30.6164C23.7003 31.2664 24.4719 31.782 25.3212 32.1338C26.1705 32.4856 27.0808 32.6666 28 32.6666C29.8565 32.6666 31.637 31.9291 32.9498 30.6164C34.2625 29.3036 35 27.5231 35 25.6666C35 23.8101 34.2625 22.0296 32.9498 20.7169C31.637 19.4041 29.8565 18.6666 28 18.6666Z" fill="white"/>
</g>
<rect x="11.6973" y="9.74756" width="32.4111" height="32.4111" rx="16.2056" fill="#4278EA"/>
<path d="M27.9028 26.7423C26.8558 26.7423 25.8517 26.3264 25.1113 25.5861C24.3709 24.8457 23.955 23.8416 23.955 22.7945H25.5341C25.5341 23.4227 25.7837 24.0252 26.2279 24.4694C26.6721 24.9137 27.2746 25.1632 27.9028 25.1632C28.531 25.1632 29.1335 24.9137 29.5778 24.4694C30.022 24.0252 30.2715 23.4227 30.2715 22.7945H31.8507C31.8507 23.8416 31.4347 24.8457 30.6944 25.5861C29.954 26.3264 28.9499 26.7423 27.9028 26.7423ZM27.9028 18.8467C28.531 18.8467 29.1335 19.0963 29.5778 19.5405C30.022 19.9847 30.2715 20.5872 30.2715 21.2154H25.5341C25.5341 20.5872 25.7837 19.9847 26.2279 19.5405C26.6721 19.0963 27.2746 18.8467 27.9028 18.8467ZM33.4298 21.2154H31.8507C31.8507 20.697 31.7485 20.1836 31.5501 19.7046C31.3517 19.2257 31.061 18.7905 30.6944 18.4239C30.3278 18.0573 29.8926 17.7665 29.4136 17.5681C28.9346 17.3697 28.4213 17.2676 27.9028 17.2676C26.8558 17.2676 25.8517 17.6835 25.1113 18.4239C24.3709 19.1642 23.955 20.1684 23.955 21.2154H22.3759C21.4995 21.2154 20.7968 21.9181 20.7968 22.7945V32.2693C20.7968 32.6881 20.9631 33.0898 21.2593 33.3859C21.5554 33.6821 21.9571 33.8484 22.3759 33.8484H33.4298C33.8486 33.8484 34.2502 33.6821 34.5464 33.3859C34.8425 33.0898 35.0089 32.6881 35.0089 32.2693V22.7945C35.0089 22.3757 34.8425 21.9741 34.5464 21.6779C34.2502 21.3818 33.8486 21.2154 33.4298 21.2154Z" fill="white"/>
</g>
<defs>
<filter id="filter0_d_389_409" x="-3.00012" y="-1.43441" width="62.0011" height="67.7983" filterUnits="userSpaceOnUse" color-interpolation-filters="sRGB">
<feFlood flood-opacity="0" result="BackgroundImageFix"/>
<feColorMatrix in="SourceAlpha" type="matrix" values="0 0 0 0 0 0 0 0 0 0 0 0 0 0 0 0 0 0 127 0" result="hardAlpha"/>
<feOffset dy="3.89908"/>
<feGaussianBlur stdDeviation="5"/>
<feComposite in2="hardAlpha" operator="out"/>
<feColorMatrix type="matrix" values="0 0 0 0 0 0 0 0 0 0 0 0 0 0 0 0 0 0 0.25 0"/>
<feBlend mode="normal" in2="BackgroundImageFix" result="effect1_dropShadow_389_409"/>
<feBlend mode="normal" in="SourceGraphic" in2="effect1_dropShadow_389_409" result="shape"/>
</filter>
<clipPath id="clip0_389_409">
<rect width="56" height="56" fill="white"/>
</clipPath>
</defs>
</svg>
