<svg width="20" height="21" viewBox="0 0 20 21" fill="none" xmlns="http://www.w3.org/2000/svg">
<path d="M16.25 6.75024C16.25 6.75024 17.5 8.00024 17.5 10.0836C17.5 12.1669 16.25 13.4169 16.25 13.4169" stroke="#2A2A2E" stroke-width="1.4" stroke-linecap="round" stroke-linejoin="round"/>
<path d="M1.6665 12.0476V8.95255C1.6665 8.51052 1.8421 8.0866 2.15466 7.77404C2.46722 7.46148 2.89114 7.28589 3.33317 7.28589H5.74984C5.91277 7.28584 6.07212 7.23804 6.20817 7.14839L11.2082 3.85172C11.3338 3.76899 11.4795 3.7218 11.6298 3.71517C11.78 3.70853 11.9293 3.7427 12.0617 3.81404C12.1942 3.88538 12.3048 3.99124 12.3819 4.12038C12.4591 4.24952 12.4998 4.39713 12.4998 4.54755V16.4526C12.4998 16.603 12.4591 16.7506 12.3819 16.8797C12.3048 17.0089 12.1942 17.1147 12.0617 17.1861C11.9293 17.2574 11.78 17.2916 11.6298 17.2849C11.4795 17.2783 11.3338 17.2311 11.2082 17.1484L6.20817 13.8517C6.07212 13.7621 5.91277 13.7143 5.74984 13.7142H3.33317C2.89114 13.7142 2.46722 13.5386 2.15466 13.2261C1.8421 12.9135 1.6665 12.4896 1.6665 12.0476Z" stroke="#2A2A2E" stroke-width="1.4"/>
</svg>
