<svg width="23" height="20" viewBox="0 0 23 20" fill="none" xmlns="http://www.w3.org/2000/svg">
<path d="M19.958 4.94629C19.958 4.94629 21.583 6.57129 21.583 9.27962C21.583 11.988 19.958 13.613 19.958 13.613" stroke="#FC696A" stroke-width="1.82" stroke-linecap="round" stroke-linejoin="round"/>
<path d="M1 11.8332V7.80966C1 7.23502 1.22827 6.68392 1.6346 6.27759C2.04093 5.87126 2.59203 5.64299 3.16667 5.64299H6.30833C6.52015 5.64294 6.7273 5.58079 6.90417 5.46424L13.4042 1.17857C13.5675 1.07102 13.7569 1.00968 13.9522 1.00105C14.1476 0.99243 14.3416 1.03685 14.5138 1.12959C14.6859 1.22233 14.8298 1.35994 14.9301 1.52783C15.0303 1.69571 15.0833 1.88761 15.0833 2.08316V17.5597C15.0833 17.7552 15.0303 17.9471 14.9301 18.115C14.8298 18.2829 14.6859 18.4205 14.5138 18.5132C14.3416 18.606 14.1476 18.6504 13.9522 18.6418C13.7569 18.6331 13.5675 18.5718 13.4042 18.4642L6.90417 14.1786C6.7273 14.062 6.52015 13.9999 6.30833 13.9998H3.16667C2.59203 13.9998 2.04093 13.7715 1.6346 13.3652C1.22827 12.9589 1 12.4078 1 11.8332Z" stroke="#FC696A" stroke-width="1.82"/>
</svg>
