<svg width="24" height="25" viewBox="0 0 24 25" fill="none" xmlns="http://www.w3.org/2000/svg">
<path d="M7.52983 7.03009C7.66231 6.88792 7.73443 6.69987 7.731 6.50557C7.72758 6.31127 7.64886 6.12588 7.51145 5.98847C7.37404 5.85106 7.18865 5.77234 6.99435 5.76892C6.80005 5.76549 6.612 5.83761 6.46983 5.97009L4.46983 7.97009C4.32938 8.11072 4.25049 8.30134 4.25049 8.50009C4.25049 8.69884 4.32938 8.88946 4.46983 9.03009L6.46983 11.0301C6.53849 11.1038 6.62129 11.1629 6.71329 11.2039C6.80529 11.2449 6.9046 11.2669 7.00531 11.2687C7.10601 11.2705 7.20604 11.2519 7.29943 11.2142C7.39281 11.1765 7.47765 11.1203 7.54887 11.0491C7.62009 10.9779 7.67623 10.8931 7.71395 10.7997C7.75167 10.7063 7.7702 10.6063 7.76842 10.5056C7.76664 10.4049 7.7446 10.3056 7.70361 10.2136C7.66262 10.1216 7.60352 10.0388 7.52983 9.97009L6.80983 9.25009H16.9998C17.1987 9.25009 17.3895 9.17107 17.5302 9.03042C17.6708 8.88977 17.7498 8.699 17.7498 8.50009C17.7498 8.30118 17.6708 8.11041 17.5302 7.96976C17.3895 7.82911 17.1987 7.75009 16.9998 7.75009H6.80983L7.52983 7.03009ZM16.4698 13.9701C16.3294 14.1107 16.2505 14.3013 16.2505 14.5001C16.2505 14.6988 16.3294 14.8895 16.4698 15.0301L17.1898 15.7501H6.99983C6.80092 15.7501 6.61015 15.8291 6.4695 15.9698C6.32885 16.1104 6.24983 16.3012 6.24983 16.5001C6.24983 16.699 6.32885 16.8898 6.4695 17.0304C6.61015 17.1711 6.80092 17.2501 6.99983 17.2501H17.1898L16.4698 17.9701C16.3961 18.0388 16.337 18.1216 16.296 18.2136C16.2551 18.3056 16.233 18.4049 16.2312 18.5056C16.2295 18.6063 16.248 18.7063 16.2857 18.7997C16.3234 18.8931 16.3796 18.9779 16.4508 19.0491C16.522 19.1203 16.6068 19.1765 16.7002 19.2142C16.7936 19.2519 16.8936 19.2705 16.9944 19.2687C17.0951 19.2669 17.1944 19.2449 17.2864 19.2039C17.3784 19.1629 17.4612 19.1038 17.5298 19.0301L19.5298 17.0301C19.6703 16.8895 19.7492 16.6988 19.7492 16.5001C19.7492 16.3013 19.6703 16.1107 19.5298 15.9701L17.5298 13.9701C17.3892 13.8296 17.1986 13.7508 16.9998 13.7508C16.8011 13.7508 16.6105 13.8296 16.4698 13.9701Z" fill="#A1A1AA"/>
</svg>
