<svg width="20" height="21" viewBox="0 0 20 21" fill="none" xmlns="http://www.w3.org/2000/svg">
<path d="M2.94189 10.0582V11.8232C2.94179 12.2867 3.03299 12.7457 3.2103 13.174C3.38761 13.6022 3.64754 13.9914 3.97527 14.3192C4.30299 14.647 4.69208 14.907 5.12032 15.0844C5.54855 15.2618 6.00753 15.3532 6.47106 15.3532H17.0586M2.94189 5.64648H13.5294C13.993 5.64637 14.4521 5.73761 14.8804 5.91497C15.3087 6.09233 15.6979 6.35234 16.0257 6.68015C16.3535 7.00797 16.6136 7.39715 16.7909 7.82548C16.9683 8.25381 17.0595 8.71289 17.0594 9.17648V10.9407" stroke="#2A2A2E" stroke-width="1.4" stroke-linecap="round" stroke-linejoin="round"/>
<path d="M14.4118 12.7058L17.0593 15.3525L14.4118 18M5.58842 8.29417L2.94092 5.64667L5.58842 3" stroke="#2A2A2E" stroke-width="1.4" stroke-linecap="round" stroke-linejoin="round"/>
</svg>
