<svg width="22" height="19" viewBox="0 0 22 19" fill="none" xmlns="http://www.w3.org/2000/svg">
<path d="M7.99707 3C9.05794 3 10.0754 3.42143 10.8255 4.17157C11.5756 4.92172 11.9971 5.93913 11.9971 7C11.9971 8.06087 11.5756 9.07828 10.8255 9.82843C10.0754 10.5786 9.05794 11 7.99707 11C6.9362 11 5.91879 10.5786 5.16864 9.82843C4.4185 9.07828 3.99707 8.06087 3.99707 7C3.99707 5.93913 4.4185 4.92172 5.16864 4.17157C5.91879 3.42143 6.9362 3 7.99707 3ZM7.99707 13C10.6671 13 15.9971 14.34 15.9971 17V19H-0.00292969V17C-0.00292969 14.34 5.32707 13 7.99707 13ZM15.7571 3.36C17.7771 5.56 17.7771 8.61 15.7571 10.63L14.0771 8.94C14.9171 7.76 14.9171 6.23 14.0771 5.05L15.7571 3.36ZM19.0671 0C22.9971 4.05 22.9671 10.11 19.0671 14L17.4371 12.37C20.2071 9.19 20.2071 4.65 17.4371 1.63L19.0671 0Z" fill="#A1A1AA"/>
</svg>
