<svg width="22" height="19" viewBox="0 0 22 19" fill="none" xmlns="http://www.w3.org/2000/svg">
<path d="M7.99683 3C9.05769 3 10.0751 3.42143 10.8253 4.17157C11.5754 4.92172 11.9968 5.93913 11.9968 7C11.9968 8.06087 11.5754 9.07828 10.8253 9.82843C10.0751 10.5786 9.05769 11 7.99683 11C6.93596 11 5.91854 10.5786 5.1684 9.82843C4.41825 9.07828 3.99683 8.06087 3.99683 7C3.99683 5.93913 4.41825 4.92172 5.1684 4.17157C5.91854 3.42143 6.93596 3 7.99683 3ZM7.99683 13C10.6668 13 15.9968 14.34 15.9968 17V19H-0.00317383V17C-0.00317383 14.34 5.32683 13 7.99683 13ZM15.7568 3.36C17.7768 5.56 17.7768 8.61 15.7568 10.63L14.0768 8.94C14.9168 7.76 14.9168 6.23 14.0768 5.05L15.7568 3.36ZM19.0668 0C22.9968 4.05 22.9668 10.11 19.0668 14L17.4368 12.37C20.2068 9.19 20.2068 4.65 17.4368 1.63L19.0668 0Z" fill="#2A2A2E"/>
</svg>
