<svg width="100" height="100" viewBox="0 0 100 100" fill="none" xmlns="http://www.w3.org/2000/svg">
<rect x="0.580236" y="0.580236" width="98.8395" height="98.8395" rx="49.4198" stroke="#2A2A2E" stroke-width="1.16047"/>
<g clip-path="url(#clip0_578_20665)">
<path d="M55.9674 48.8067C55.9674 50.3896 55.3386 51.9076 54.2194 53.0268C53.1001 54.1461 51.5821 54.7748 49.9993 54.7748C48.4164 54.7748 46.8984 54.1461 45.7792 53.0268C44.6599 51.9076 44.0311 50.3896 44.0311 48.8067V40.4513C44.0311 38.8684 44.6599 37.3504 45.7792 36.2312C46.8984 35.1119 48.4164 34.4832 49.9993 34.4832C51.5821 34.4832 53.1001 35.1119 54.2194 36.2312C55.3386 37.3504 55.9674 38.8684 55.9674 40.4513V48.8067Z" stroke="#2A2A2E" stroke-width="2.08885" stroke-linecap="round" stroke-linejoin="round"/>
<path d="M61.9358 50.0002C61.939 51.4119 61.6633 52.8102 61.1245 54.115C60.5858 55.4198 59.7946 56.6053 58.7964 57.6035C57.7982 58.6016 56.6127 59.3928 55.3079 59.9316C54.0032 60.4703 52.6048 60.7461 51.1932 60.7429H48.8059C47.3943 60.7461 45.9959 60.4703 44.6912 59.9316C43.3864 59.3928 42.2009 58.6016 41.2027 57.6035C40.2045 56.6053 39.4133 55.4198 38.8746 54.115C38.3358 52.8102 38.0601 51.4119 38.0633 50.0002M49.9995 60.7429V65.5174" stroke="#2A2A2E" stroke-width="2.08885" stroke-linecap="round" stroke-linejoin="round"/>
</g>
<defs>
<clipPath id="clip0_578_20665">
<rect width="33.4216" height="33.4216" fill="white" transform="translate(33.2891 33.2893)"/>
</clipPath>
</defs>
</svg>
