<svg width="100" height="100" viewBox="0 0 100 100" fill="none" xmlns="http://www.w3.org/2000/svg">
<rect x="0.580236" y="0.580236" width="98.8395" height="98.8395" rx="49.4198" stroke="#AD0002" stroke-width="1.16047"/>
<g clip-path="url(#clip0_676_10943)">
<path d="M55.9675 48.8065C55.9675 50.3893 55.3388 51.9073 54.2195 53.0266C53.1003 54.1458 51.5822 54.7746 49.9994 54.7746C48.4165 54.7746 46.8985 54.1458 45.7793 53.0266C44.66 51.9073 44.0312 50.3893 44.0312 48.8065V40.4511C44.0312 38.8682 44.66 37.3502 45.7793 36.2309C46.8985 35.1117 48.4165 34.4829 49.9994 34.4829C51.5822 34.4829 53.1003 35.1117 54.2195 36.2309C55.3388 37.3502 55.9675 38.8682 55.9675 40.4511V48.8065Z" stroke="#AD0002" stroke-width="2.08885" stroke-linecap="round" stroke-linejoin="round"/>
<path d="M61.9361 50.0001C61.9392 51.4118 61.6635 52.8101 61.1248 54.1149C60.586 55.4197 59.7948 56.6052 58.7966 57.6033C57.7985 58.6015 56.613 59.3927 55.3082 59.9315C54.0034 60.4702 52.605 60.7459 51.1934 60.7428H48.8062C47.3945 60.7459 45.9962 60.4702 44.6914 59.9315C43.3866 59.3927 42.2011 58.6015 41.2029 57.6033C40.2048 56.6052 39.4136 55.4197 38.8748 54.1149C38.3361 52.8101 38.0604 51.4118 38.0635 50.0001M49.9998 60.7428V65.5173" stroke="#AD0002" stroke-width="2.08885" stroke-linecap="round" stroke-linejoin="round"/>
</g>
<defs>
<clipPath id="clip0_676_10943">
<rect width="33.4216" height="33.4216" fill="white" transform="translate(33.2891 33.2893)"/>
</clipPath>
</defs>
</svg>
